<svg width="307" height="340" viewBox="0 0 307 340" fill="none" xmlns="http://www.w3.org/2000/svg">
<g filter="url(#filter0_d_5_405)">
<rect x="0.660156" y="0.294922" width="306.271" height="339.309" rx="8" fill="white"/>
</g>
<path fill-rule="evenodd" clip-rule="evenodd" d="M279.256 292.278L42.6326 292.278L42.6326 291.385L279.256 291.386L279.256 292.278Z" fill="#EEF0F2"/>
<path fill-rule="evenodd" clip-rule="evenodd" d="M279.256 235.132L42.6326 235.132L42.6326 234.239L279.256 234.239L279.256 235.132Z" fill="#EEF0F2"/>
<path fill-rule="evenodd" clip-rule="evenodd" d="M279.252 178.878L42.6287 178.878L42.6287 177.985L279.252 177.985L279.252 178.878Z" fill="#EEF0F2"/>
<path fill-rule="evenodd" clip-rule="evenodd" d="M279.252 122.624L42.6287 122.624L42.6287 121.731L279.252 121.731L279.252 122.624Z" fill="#EEF0F2"/>
<path d="M21.8988 291.562V290.767L24.3597 288.217C24.6201 287.94 24.8368 287.698 25.0096 287.489C25.1824 287.279 25.3114 287.079 25.3967 286.889C25.4819 286.7 25.5245 286.499 25.5245 286.286C25.5245 285.923 25.4002 285.637 25.1516 285.426C24.9031 285.213 24.5941 285.107 24.2248 285.107C23.8318 285.107 23.5181 285.225 23.2837 285.462C23.0517 285.696 22.9369 286.009 22.9393 286.399H21.8917C21.8917 285.956 21.9935 285.569 22.1971 285.238C22.4007 284.906 22.68 284.65 23.0352 284.467C23.3903 284.283 23.7939 284.19 24.2461 284.19C24.703 284.19 25.1055 284.281 25.4535 284.464C25.8039 284.644 26.0773 284.89 26.2738 285.202C26.4703 285.513 26.5685 285.863 26.5685 286.254C26.5685 286.523 26.5176 286.787 26.4158 287.045C26.3164 287.304 26.1424 287.591 25.8938 287.908C25.6476 288.223 25.302 288.606 24.8569 289.055L23.4116 290.568V290.621H26.6857V291.562H21.8988ZM28.0458 291.562V284.29H29.1076V288.416H29.1999L31.3732 286.108H32.6445L30.4357 288.448L32.7937 291.562H31.4904L29.6367 289.098L29.1076 289.627V291.562H28.0458Z" fill="#333333"/>
<path d="M20.8555 232.996V232.108L23.9982 227.143H25.3512V232.065H26.3136V232.996H25.3512V234.416H24.3036V232.996H20.8555ZM24.3107 232.065V228.45H24.2539L22.006 232.008V232.065H24.3107ZM27.5653 234.416V227.143H28.6271V231.27H28.7195L30.8928 228.961H32.1641L29.9553 231.302L32.3132 234.416H31.0099L29.1562 231.952L28.6271 232.481V234.416H27.5653Z" fill="#333333"/>
<path d="M23.5433 178.261C23.2214 178.258 22.9029 178.2 22.5881 178.087C22.2732 177.971 21.9879 177.78 21.7322 177.515C21.4766 177.25 21.2718 176.894 21.1179 176.446C20.9664 175.999 20.8906 175.44 20.8906 174.77C20.8906 173.92 21.0019 173.198 21.2244 172.604C21.447 172.007 21.763 171.553 22.1726 171.24C22.5845 170.928 23.0722 170.771 23.6357 170.771C24.0689 170.771 24.4536 170.858 24.7898 171.031C25.1259 171.201 25.3994 171.438 25.6101 171.741C25.8208 172.042 25.9534 172.387 26.0078 172.778H24.9247C24.8513 172.468 24.7057 172.217 24.4879 172.025C24.2701 171.831 23.986 171.734 23.6357 171.734C23.103 171.734 22.6875 171.966 22.3892 172.43C22.0933 172.894 21.9441 173.544 21.9418 174.379H21.995C22.1821 174.072 22.433 173.831 22.7479 173.659C23.0651 173.483 23.4155 173.396 23.799 173.396C24.2204 173.396 24.6027 173.499 24.946 173.705C25.2893 173.908 25.5627 174.19 25.7663 174.55C25.9699 174.91 26.0705 175.322 26.0682 175.786C26.0705 176.25 25.9664 176.67 25.7557 177.046C25.545 177.423 25.2502 177.721 24.8714 177.941C24.4927 178.159 24.05 178.266 23.5433 178.261ZM23.5398 177.338C23.8168 177.338 24.0653 177.269 24.2855 177.132C24.508 176.994 24.6832 176.81 24.8111 176.578C24.9413 176.346 25.0052 176.086 25.0028 175.8C25.0052 175.518 24.9437 175.264 24.8182 175.036C24.6927 174.807 24.5211 174.624 24.3033 174.49C24.0878 174.355 23.8416 174.287 23.5646 174.287C23.2853 174.287 23.0331 174.358 22.8082 174.5C22.5857 174.64 22.4081 174.826 22.2756 175.058C22.1454 175.287 22.0791 175.538 22.0767 175.811C22.0767 176.083 22.1394 176.335 22.2649 176.567C22.3928 176.799 22.5668 176.986 22.7869 177.128C23.0071 177.268 23.258 177.338 23.5398 177.338ZM27.3759 178.161V170.889H28.4377V175.015H28.53L30.7033 172.707H31.9746L29.7658 175.047L32.1238 178.161H30.8205L28.9668 175.697L28.4377 176.226V178.161H27.3759Z" fill="#333333"/>
<path d="M23.4616 122.008C22.9527 122.008 22.5028 121.92 22.1122 121.745C21.724 121.567 21.4197 121.326 21.1996 121.02C20.9794 120.713 20.8705 120.362 20.8729 119.969C20.8705 119.664 20.9332 119.382 21.0611 119.124C21.1913 118.864 21.3677 118.646 21.5902 118.471C21.8127 118.296 22.0613 118.184 22.3359 118.137V118.094C21.9761 118.009 21.6861 117.816 21.4659 117.515C21.2481 117.212 21.1404 116.866 21.1428 116.475C21.1404 116.103 21.2386 115.772 21.4375 115.481C21.6387 115.189 21.9145 114.96 22.2649 114.792C22.6153 114.621 23.0142 114.536 23.4616 114.536C23.9067 114.536 24.3033 114.621 24.6513 114.792C24.9993 114.96 25.2739 115.189 25.4751 115.481C25.6764 115.772 25.7782 116.103 25.7805 116.475C25.7782 116.868 25.6669 117.215 25.4467 117.515C25.2266 117.816 24.9401 118.009 24.5874 118.094V118.137C24.8596 118.184 25.1058 118.296 25.326 118.471C25.5462 118.646 25.7214 118.864 25.8516 119.124C25.9818 119.382 26.0481 119.664 26.0504 119.969C26.0481 120.362 25.9356 120.713 25.7131 121.02C25.4929 121.326 25.1887 121.567 24.8004 121.745C24.4122 121.92 23.9659 122.008 23.4616 122.008ZM23.4616 121.109C23.9115 121.109 24.2689 120.999 24.5341 120.779C24.8016 120.556 24.9366 120.263 24.9389 119.898C24.9366 119.519 24.7957 119.209 24.5163 118.968C24.237 118.724 23.8854 118.602 23.4616 118.602C23.0331 118.602 22.6792 118.724 22.3999 118.968C22.1205 119.209 21.982 119.519 21.9844 119.898C21.982 120.263 22.1134 120.556 22.3786 120.779C22.6461 120.999 23.0071 121.109 23.4616 121.109ZM23.4616 117.725C23.8239 117.725 24.1222 117.618 24.3565 117.405C24.5909 117.192 24.7093 116.913 24.7116 116.567C24.7093 116.226 24.5921 115.953 24.3601 115.747C24.1304 115.539 23.831 115.434 23.4616 115.434C23.0852 115.434 22.7822 115.539 22.5526 115.747C22.3229 115.953 22.2093 116.226 22.2116 116.567C22.2093 116.913 22.3253 117.192 22.5597 117.405C22.794 117.618 23.0947 117.725 23.4616 117.725ZM27.3368 121.908V114.635H28.3986V118.762H28.4909L30.6642 116.454H31.9355L29.7267 118.794L32.0847 121.908H30.7814L28.9277 119.444L28.3986 119.973V121.908H27.3368Z" fill="#333333"/>
<path d="M32.3162 70.5847V86.5847H29.4099V74.2878H29.2771C29.1209 74.5326 28.7563 74.793 28.1834 75.0691C27.6105 75.3399 26.8735 75.4753 25.9724 75.4753V73.1316C26.5245 73.1316 27.0167 73.0352 27.449 72.8425C27.8813 72.6446 28.2485 72.405 28.5506 72.1238C28.8579 71.8373 29.0948 71.5535 29.2615 71.2722C29.4282 70.991 29.5193 70.7618 29.5349 70.5847H32.3162ZM42.2556 86.8035C41.49 86.7983 40.7426 86.6654 40.0135 86.405C39.2843 86.1394 38.628 85.7097 38.0447 85.116C37.4666 84.5222 37.0056 83.7279 36.6619 82.7332C36.3181 81.7384 36.1463 80.5066 36.1463 79.0378C36.1463 77.1993 36.4015 75.6316 36.9119 74.3347C37.4275 73.0326 38.1541 72.0378 39.0916 71.3503C40.0291 70.6628 41.1385 70.3191 42.4197 70.3191C43.4301 70.3191 44.3234 70.5196 45.0994 70.9207C45.8754 71.3165 46.503 71.8608 46.9822 72.5535C47.4614 73.241 47.7582 74.0222 47.8728 74.8972H45.0213C44.8754 74.2618 44.576 73.7592 44.1228 73.3894C43.6749 73.0144 43.1072 72.8269 42.4197 72.8269C41.3103 72.8269 40.4562 73.3113 39.8572 74.28C39.2635 75.2436 38.964 76.5795 38.9588 78.2878H39.0681C39.4536 77.6003 40.0004 77.0613 40.7088 76.6707C41.4223 76.2748 42.2088 76.0769 43.0681 76.0769C44.0056 76.0769 44.8468 76.3009 45.5916 76.7488C46.3416 77.1967 46.9353 77.8139 47.3728 78.6003C47.8103 79.3816 48.0265 80.2774 48.0213 81.2878C48.0265 82.3399 47.7869 83.2852 47.3025 84.1238C46.8234 84.9571 46.1489 85.6134 45.2791 86.0925C44.4145 86.5717 43.4067 86.8087 42.2556 86.8035ZM42.24 84.4597C42.8077 84.4597 43.3155 84.3217 43.7635 84.0457C44.2114 83.7696 44.5655 83.3972 44.826 82.9285C45.0864 82.4597 45.214 81.9337 45.2088 81.3503C45.214 80.7774 45.089 80.2592 44.8338 79.7957C44.5786 79.3321 44.2296 78.9649 43.7869 78.6941C43.3494 78.4233 42.8468 78.2878 42.2791 78.2878C41.7166 78.2878 41.2088 78.4285 40.7556 78.7097C40.3025 78.991 39.9431 79.366 39.6775 79.8347C39.4119 80.2983 39.2765 80.8113 39.2713 81.3738C39.2765 81.9311 39.4067 82.4441 39.6619 82.9128C39.9171 83.3816 40.2687 83.7566 40.7166 84.0378C41.1645 84.3191 41.6723 84.4597 42.24 84.4597ZM51.6834 86.7566C51.2094 86.7566 50.8032 86.5899 50.4646 86.2566C50.1261 85.918 49.9594 85.5118 49.9646 85.0378C49.9594 84.5691 50.1261 84.168 50.4646 83.8347C50.8032 83.5014 51.2094 83.3347 51.6834 83.3347C52.1469 83.3347 52.548 83.5014 52.8865 83.8347C53.225 84.168 53.3969 84.5691 53.4021 85.0378C53.3969 85.5118 53.225 85.918 52.8865 86.2566C52.548 86.5899 52.1469 86.7566 51.6834 86.7566ZM56.2908 86.5847V84.491L61.8455 79.0457C62.6372 78.2436 63.2335 77.5613 63.6345 76.9988C64.0356 76.4363 64.2361 75.8217 64.2361 75.155C64.2361 74.3998 63.9835 73.8061 63.4783 73.3738C62.9731 72.9363 62.3403 72.7175 61.5799 72.7175C60.783 72.7175 60.145 72.9571 59.6658 73.4363C59.1918 73.9102 58.9549 74.5561 58.9549 75.3738H56.1971C56.1971 74.3582 56.4288 73.4753 56.8924 72.7253C57.3559 71.9753 57.9939 71.3946 58.8064 70.9832C59.6241 70.5717 60.5616 70.366 61.6189 70.366C62.6918 70.366 63.6319 70.5665 64.4392 70.9675C65.2517 71.3686 65.8845 71.918 66.3377 72.616C66.7908 73.3139 67.0174 74.1108 67.0174 75.0066C67.0174 75.6055 66.9028 76.1941 66.6736 76.7722C66.4444 77.3503 66.0408 77.9936 65.4627 78.7019C64.8898 79.405 64.0851 80.254 63.0486 81.2488L60.2908 84.0535V84.1628H67.2595V86.5847H56.2908ZM69.9861 86.5847V70.5847H72.8142V79.405H73.0095L77.322 74.5847H80.6267L75.9783 79.7644L80.9002 86.5847H77.5174L73.8455 81.4519L72.8142 82.5535V86.5847H69.9861Z" fill="#2B2B2B"/>
<path d="M95.2053 77.8574V86.5847H93.995L89.5589 80.1841H89.478V86.5847H88.1612V77.8574H89.38L93.8203 84.2665H93.9013V77.8574H95.2053ZM99.8448 86.7168C99.2028 86.7168 98.6488 86.5776 98.1829 86.2992C97.717 86.0208 97.3576 85.6302 97.1048 85.1273C96.8548 84.6216 96.7298 84.0307 96.7298 83.3546C96.7298 82.6841 96.8548 82.0932 97.1048 81.5819C97.3576 81.0705 97.7099 80.6714 98.1616 80.3844C98.6161 80.0975 99.1474 79.954 99.7553 79.954C100.25 79.954 100.717 80.0648 101.157 80.2864C101.6 80.5052 101.96 80.856 102.235 81.339C102.514 81.8191 102.653 82.454 102.653 83.2438V83.6955H97.9996C98.0167 84.3262 98.1942 84.812 98.5323 85.1529C98.8704 85.4938 99.3121 85.6643 99.8576 85.6643C100.221 85.6643 100.535 85.5861 100.799 85.4299C101.064 85.2736 101.252 85.0407 101.366 84.731L102.572 84.9484C102.427 85.4796 102.115 85.9072 101.635 86.231C101.154 86.5549 100.558 86.7168 99.8448 86.7168ZM98.0039 82.741H101.404C101.402 82.241 101.251 81.8276 100.953 81.5009C100.654 81.1714 100.258 81.0066 99.7638 81.0066C99.4201 81.0066 99.119 81.0876 98.8604 81.2495C98.6048 81.4086 98.4016 81.6202 98.2511 81.8844C98.1033 82.1458 98.0209 82.4313 98.0039 82.741ZM105.474 86.5847L103.548 80.0393H104.865L106.147 84.8461H106.211L107.498 80.0393H108.815L110.093 84.8248H110.157L111.431 80.0393H112.748L110.826 86.5847H109.527L108.197 81.8589H108.099L106.77 86.5847H105.474ZM117.235 86.5847V77.8574H122.647V78.991H118.552V81.6501H122.26V82.7793H118.552V86.5847H117.235ZM126.441 86.7168C125.827 86.7168 125.292 86.5762 124.835 86.2949C124.377 86.0137 124.022 85.6202 123.769 85.1145C123.516 84.606 123.39 84.0151 123.39 83.3418C123.39 82.6628 123.516 82.0691 123.769 81.5606C124.022 81.052 124.377 80.6572 124.835 80.3759C125.292 80.0947 125.827 79.954 126.441 79.954C127.058 79.954 127.593 80.0947 128.048 80.3759C128.505 80.6572 128.86 81.052 129.113 81.5606C129.366 82.0691 129.492 82.6628 129.492 83.3418C129.492 84.0151 129.366 84.606 129.113 85.1145C128.86 85.6202 128.505 86.0137 128.048 86.2949C127.593 86.5762 127.058 86.7168 126.441 86.7168ZM126.445 85.6472C126.846 85.6472 127.175 85.5421 127.434 85.3319C127.695 85.1216 127.888 84.8418 128.013 84.4924C128.141 84.1401 128.205 83.7552 128.205 83.3376C128.205 82.9199 128.141 82.535 128.013 82.1827C127.888 81.8305 127.695 81.5492 127.434 81.339C127.175 81.1259 126.846 81.0194 126.445 81.0194C126.045 81.0194 125.714 81.1259 125.452 81.339C125.191 81.5492 124.996 81.8305 124.869 82.1827C124.741 82.535 124.677 82.9199 124.677 83.3376C124.677 83.7552 124.741 84.1401 124.869 84.4924C124.996 84.8418 125.191 85.1216 125.452 85.3319C125.714 85.5421 126.045 85.6472 126.445 85.6472ZM132.189 77.8574V86.5847H130.914V77.8574H132.189ZM135.177 77.8574V86.5847H133.903V77.8574H135.177ZM139.648 86.7168C139.034 86.7168 138.499 86.5762 138.042 86.2949C137.584 86.0137 137.229 85.6202 136.976 85.1145C136.723 84.606 136.597 84.0151 136.597 83.3418C136.597 82.6628 136.723 82.0691 136.976 81.5606C137.229 81.052 137.584 80.6572 138.042 80.3759C138.499 80.0947 139.034 79.954 139.648 79.954C140.265 79.954 140.8 80.0947 141.255 80.3759C141.712 80.6572 142.067 81.052 142.32 81.5606C142.573 82.0691 142.699 82.6628 142.699 83.3418C142.699 84.0151 142.573 84.606 142.32 85.1145C142.067 85.6202 141.712 86.0137 141.255 86.2949C140.8 86.5762 140.265 86.7168 139.648 86.7168ZM139.652 85.6472C140.053 85.6472 140.382 85.5421 140.641 85.3319C140.902 85.1216 141.096 84.8418 141.221 84.4924C141.348 84.1401 141.412 83.7552 141.412 83.3376C141.412 82.9199 141.348 82.535 141.221 82.1827C141.096 81.8305 140.902 81.5492 140.641 81.339C140.382 81.1259 140.053 81.0194 139.652 81.0194C139.252 81.0194 138.921 81.1259 138.659 81.339C138.398 81.5492 138.203 81.8305 138.076 82.1827C137.948 82.535 137.884 82.9199 137.884 83.3376C137.884 83.7552 137.948 84.1401 138.076 84.4924C138.203 84.8418 138.398 85.1216 138.659 85.3319C138.921 85.5421 139.252 85.6472 139.652 85.6472ZM145.341 86.5847L143.415 80.0393H144.732L146.015 84.8461H146.078L147.365 80.0393H148.682L149.961 84.8248H150.024L151.299 80.0393H152.615L150.694 86.5847H149.394L148.064 81.8589H147.966L146.637 86.5847H145.341ZM156.446 86.7168C155.804 86.7168 155.25 86.5776 154.784 86.2992C154.319 86.0208 153.959 85.6302 153.706 85.1273C153.456 84.6216 153.331 84.0307 153.331 83.3546C153.331 82.6841 153.456 82.0932 153.706 81.5819C153.959 81.0705 154.311 80.6714 154.763 80.3844C155.218 80.0975 155.749 79.954 156.357 79.954C156.851 79.954 157.319 80.0648 157.759 80.2864C158.202 80.5052 158.561 80.856 158.837 81.339C159.115 81.8191 159.255 82.454 159.255 83.2438V83.6955H154.601C154.618 84.3262 154.796 84.812 155.134 85.1529C155.472 85.4938 155.914 85.6643 156.459 85.6643C156.823 85.6643 157.137 85.5861 157.401 85.4299C157.665 85.2736 157.854 85.0407 157.968 84.731L159.174 84.9484C159.029 85.4796 158.716 85.9072 158.236 86.231C157.756 86.5549 157.159 86.7168 156.446 86.7168ZM154.605 82.741H158.006C158.003 82.241 157.853 81.8276 157.554 81.5009C157.256 81.1714 156.86 81.0066 156.365 81.0066C156.022 81.0066 155.721 81.0876 155.462 81.2495C155.206 81.4086 155.003 81.6202 154.853 81.8844C154.705 82.1458 154.623 82.4313 154.605 82.741ZM160.668 86.5847V80.0393H161.9V81.079H161.968C162.087 80.7268 162.298 80.4498 162.599 80.2481C162.9 80.0435 163.244 79.9412 163.63 79.9412C163.809 79.9412 163.969 79.9626 164.112 80.0052C164.254 80.0478 164.379 80.106 164.487 80.1799L164.077 81.2452C164.001 81.2055 163.914 81.1742 163.817 81.1515C163.721 81.1287 163.61 81.1174 163.485 81.1174C163.045 81.1174 162.677 81.2566 162.381 81.535C162.089 81.8106 161.942 82.1614 161.942 82.5876V86.5847H160.668ZM170.354 81.6373L169.2 81.8418C169.126 81.6231 168.988 81.4228 168.786 81.241C168.587 81.0563 168.289 80.964 167.891 80.964C167.531 80.964 167.228 81.0449 166.984 81.2069C166.742 81.366 166.623 81.5719 166.626 81.8248C166.623 82.0464 166.702 82.2239 166.864 82.3574C167.029 82.4881 167.292 82.5961 167.653 82.6813L168.692 82.9199C169.886 83.1955 170.482 83.7864 170.482 84.6927C170.482 85.0876 170.369 85.437 170.141 85.741C169.917 86.0449 169.603 86.2836 169.2 86.4569C168.799 86.6302 168.335 86.7168 167.806 86.7168C167.07 86.7168 166.472 86.5606 166.012 86.2481C165.552 85.9327 165.268 85.4853 165.16 84.9057L166.391 84.7182C166.545 85.366 167.013 85.6898 167.798 85.6898C168.215 85.6898 168.549 85.6032 168.799 85.4299C169.049 85.2537 169.174 85.0393 169.174 84.7864C169.174 84.3688 168.866 84.0918 168.249 83.9555L167.141 83.7126C166.528 83.5762 166.076 83.3546 165.786 83.0478C165.496 82.741 165.352 82.356 165.352 81.893C165.352 81.5066 165.46 81.1685 165.675 80.8787C165.891 80.5861 166.19 80.3589 166.57 80.1969C166.951 80.035 167.387 79.954 167.879 79.954C168.586 79.954 169.143 80.1074 169.549 80.4143C169.955 80.7211 170.224 81.1287 170.354 81.6373Z" fill="#666666"/>
<path d="M53.7827 48.2261V38.0443H60.0966V39.3667H55.3189V42.469H59.6442V43.7864H55.3189V48.2261H53.7827ZM64.5226 48.3802C63.8067 48.3802 63.1819 48.2161 62.6483 47.888C62.1147 47.5599 61.7004 47.1008 61.4054 46.5109C61.1104 45.9176 60.9629 45.2282 60.9629 44.4427C60.9629 43.6506 61.1104 42.9578 61.4054 42.3646C61.7004 41.7713 62.1147 41.3106 62.6483 40.9825C63.1819 40.6543 63.8067 40.4903 64.5226 40.4903C65.2418 40.4903 65.8666 40.6543 66.3969 40.9825C66.9305 41.3106 67.3448 41.7713 67.6398 42.3646C67.9348 42.9578 68.0823 43.6506 68.0823 44.4427C68.0823 45.2282 67.9348 45.9176 67.6398 46.5109C67.3448 47.1008 66.9305 47.5599 66.3969 47.888C65.8666 48.2161 65.2418 48.3802 64.5226 48.3802ZM64.5276 47.1323C64.9949 47.1323 65.3794 47.0097 65.681 46.7644C65.9859 46.5192 66.2113 46.1927 66.3571 45.785C66.5063 45.374 66.5808 44.9249 66.5808 44.4377C66.5808 43.9505 66.5063 43.5014 66.3571 43.0904C66.2113 42.6794 65.9859 42.3513 65.681 42.106C65.3794 41.8575 64.9949 41.7332 64.5276 41.7332C64.0602 41.7332 63.6741 41.8575 63.3692 42.106C63.0643 42.3513 62.8372 42.6794 62.6881 43.0904C62.5389 43.5014 62.4644 43.9505 62.4644 44.4377C62.4644 44.9249 62.5389 45.374 62.6881 45.785C62.8372 46.1927 63.0643 46.5192 63.3692 46.7644C63.6741 47.0097 64.0602 47.1323 64.5276 47.1323ZM71.228 38.0443V48.2261H69.7415V38.0443H71.228ZM74.7144 38.0443V48.2261H73.2278V38.0443H74.7144ZM79.9308 48.3802C79.2149 48.3802 78.5901 48.2161 78.0565 47.888C77.5229 47.5599 77.1086 47.1008 76.8136 46.5109C76.5186 45.9176 76.3711 45.2282 76.3711 44.4427C76.3711 43.6506 76.5186 42.9578 76.8136 42.3646C77.1086 41.7713 77.5229 41.3106 78.0565 40.9825C78.5901 40.6543 79.2149 40.4903 79.9308 40.4903C80.65 40.4903 81.2748 40.6543 81.8051 40.9825C82.3387 41.3106 82.753 41.7713 83.048 42.3646C83.343 42.9578 83.4905 43.6506 83.4905 44.4427C83.4905 45.2282 83.343 45.9176 83.048 46.5109C82.753 47.1008 82.3387 47.5599 81.8051 47.888C81.2748 48.2161 80.65 48.3802 79.9308 48.3802ZM79.9358 47.1323C80.4031 47.1323 80.7876 47.0097 81.0892 46.7644C81.3941 46.5192 81.6195 46.1927 81.7653 45.785C81.9145 45.374 81.989 44.9249 81.989 44.4377C81.989 43.9505 81.9145 43.5014 81.7653 43.0904C81.6195 42.6794 81.3941 42.3513 81.0892 42.106C80.7876 41.8575 80.4031 41.7332 79.9358 41.7332C79.4684 41.7332 79.0823 41.8575 78.7774 42.106C78.4725 42.3513 78.2454 42.6794 78.0963 43.0904C77.9471 43.5014 77.8726 43.9505 77.8726 44.4377C77.8726 44.9249 77.9471 45.374 78.0963 45.785C78.2454 46.1927 78.4725 46.5192 78.7774 46.7644C79.0823 47.0097 79.4684 47.1323 79.9358 47.1323ZM86.5728 48.2261L84.3257 40.5897H85.8619L87.3584 46.1977H87.4329L88.9343 40.5897H90.4706L91.962 46.1728H92.0366L93.5231 40.5897H95.0593L92.8172 48.2261H91.3008L89.7497 42.7126H89.6353L88.0842 48.2261H86.5728ZM99.5288 48.3802C98.7798 48.3802 98.1334 48.2178 97.5899 47.893C97.0463 47.5682 96.6271 47.1124 96.3321 46.5258C96.0404 45.9358 95.8946 45.2464 95.8946 44.4576C95.8946 43.6754 96.0404 42.986 96.3321 42.3894C96.6271 41.7928 97.038 41.3272 97.565 40.9924C98.0953 40.6577 98.7151 40.4903 99.4244 40.4903C100.001 40.4903 100.546 40.6195 101.06 40.8781C101.577 41.1333 101.996 41.5426 102.318 42.106C102.643 42.6662 102.805 43.4069 102.805 44.3283V44.8553H97.3761C97.396 45.5911 97.6031 46.1579 97.9976 46.5556C98.392 46.9533 98.9074 47.1522 99.5437 47.1522C99.968 47.1522 100.334 47.0611 100.642 46.8788C100.951 46.6965 101.171 46.4247 101.304 46.0634L102.711 46.317C102.542 46.9368 102.177 47.4356 101.617 47.8134C101.057 48.1913 100.361 48.3802 99.5288 48.3802ZM97.3811 43.7417H101.348C101.345 43.1584 101.169 42.6761 100.821 42.295C100.473 41.9105 100.011 41.7183 99.4343 41.7183C99.0333 41.7183 98.682 41.8127 98.3804 42.0016C98.0821 42.1872 97.8451 42.4342 97.6694 42.7424C97.4971 43.0473 97.401 43.3804 97.3811 43.7417ZM104.454 48.2261V40.5897H105.891V41.8028H105.971C106.11 41.3918 106.355 41.0686 106.707 40.8333C107.058 40.5947 107.459 40.4754 107.91 40.4754C108.118 40.4754 108.306 40.5002 108.471 40.5499C108.637 40.5997 108.783 40.6676 108.909 40.7538L108.432 41.9967C108.342 41.9503 108.241 41.9138 108.128 41.8873C108.016 41.8608 107.886 41.8475 107.741 41.8475C107.227 41.8475 106.798 42.0099 106.453 42.3347C106.112 42.6562 105.941 43.0656 105.941 43.5627V48.2261H104.454ZM120.748 41.2609C120.555 40.6577 120.234 40.182 119.783 39.834C119.336 39.4827 118.774 39.307 118.098 39.307C117.524 39.307 117.007 39.4545 116.547 39.7495C116.086 40.0445 115.721 40.477 115.453 41.0471C115.188 41.6139 115.055 42.3082 115.055 43.1302C115.055 43.9555 115.189 44.6532 115.458 45.2232C115.726 45.7933 116.094 46.2258 116.561 46.5208C117.029 46.8158 117.561 46.9633 118.157 46.9633C118.973 46.9633 119.631 46.723 120.131 46.2424C120.632 45.7585 120.89 45.1056 120.907 44.2836H118.391V43.0158H122.393V44.1742C122.393 45.0293 122.211 45.7718 121.846 46.4015C121.485 47.0279 120.986 47.5118 120.35 47.8532C119.713 48.1946 118.983 48.3653 118.157 48.3653C117.239 48.3653 116.432 48.1548 115.736 47.7339C115.04 47.3096 114.498 46.7064 114.11 45.9242C113.723 45.142 113.529 44.214 113.529 43.1401C113.529 42.0563 113.726 41.1233 114.12 40.3411C114.515 39.5589 115.055 38.9574 115.741 38.5364C116.427 38.1155 117.209 37.9051 118.088 37.9051C118.82 37.9051 119.485 38.0476 120.081 38.3326C120.678 38.6143 121.172 39.0071 121.563 39.5109C121.957 40.0147 122.211 40.598 122.324 41.2609H120.748ZM124.224 48.2261V40.5897H125.661V41.8028H125.74C125.879 41.3918 126.125 41.0686 126.476 40.8333C126.827 40.5947 127.228 40.4754 127.679 40.4754C127.888 40.4754 128.075 40.5002 128.241 40.5499C128.407 40.5997 128.553 40.6676 128.678 40.7538L128.201 41.9967C128.112 41.9503 128.011 41.9138 127.898 41.8873C127.785 41.8608 127.656 41.8475 127.51 41.8475C126.996 41.8475 126.567 42.0099 126.223 42.3347C125.881 42.6562 125.71 43.0656 125.71 43.5627V48.2261H124.224ZM132.745 48.3802C132.029 48.3802 131.405 48.2161 130.871 47.888C130.337 47.5599 129.923 47.1008 129.628 46.5109C129.333 45.9176 129.186 45.2282 129.186 44.4427C129.186 43.6506 129.333 42.9578 129.628 42.3646C129.923 41.7713 130.337 41.3106 130.871 40.9825C131.405 40.6543 132.029 40.4903 132.745 40.4903C133.464 40.4903 134.089 40.6543 134.62 40.9825C135.153 41.3106 135.567 41.7713 135.862 42.3646C136.157 42.9578 136.305 43.6506 136.305 44.4427C136.305 45.2282 136.157 45.9176 135.862 46.5109C135.567 47.1008 135.153 47.5599 134.62 47.888C134.089 48.2161 133.464 48.3802 132.745 48.3802ZM132.75 47.1323C133.218 47.1323 133.602 47.0097 133.904 46.7644C134.209 46.5192 134.434 46.1927 134.58 45.785C134.729 45.374 134.803 44.9249 134.803 44.4377C134.803 43.9505 134.729 43.5014 134.58 43.0904C134.434 42.6794 134.209 42.3513 133.904 42.106C133.602 41.8575 133.218 41.7332 132.75 41.7332C132.283 41.7332 131.897 41.8575 131.592 42.106C131.287 42.3513 131.06 42.6794 130.911 43.0904C130.762 43.5014 130.687 43.9505 130.687 44.4377C130.687 44.9249 130.762 45.374 130.911 45.785C131.06 46.1927 131.287 46.5192 131.592 46.7644C131.897 47.0097 132.283 47.1323 132.75 47.1323ZM139.387 48.2261L137.14 40.5897H138.676L140.173 46.1977H140.247L141.749 40.5897H143.285L144.776 46.1728H144.851L146.338 40.5897H147.874L145.632 48.2261H144.115L142.564 42.7126H142.45L140.899 48.2261H139.387ZM152.849 40.5897V41.7829H151.283V45.9839C151.283 46.4148 151.374 46.6932 151.557 46.8191C151.742 46.9417 151.956 47.0031 152.198 47.0031C152.317 47.0031 152.422 46.9948 152.511 46.9782C152.601 46.9616 152.67 46.9484 152.72 46.9384L152.988 48.1664C152.902 48.1996 152.778 48.2327 152.615 48.2658C152.456 48.3023 152.259 48.3222 152.024 48.3255C151.633 48.3321 151.266 48.2625 150.925 48.1167C150.587 47.9709 150.314 47.7455 150.105 47.4406C149.899 47.1356 149.797 46.7528 149.797 46.2921V41.7829H148.678V40.5897H149.797V38.7602H151.283V40.5897H152.849ZM156.144 43.692V48.2261H154.658V38.0443H156.124V41.8326H156.219C156.398 41.4183 156.671 41.0918 157.039 40.8532C157.407 40.6113 157.887 40.4903 158.481 40.4903C159.266 40.4903 159.898 40.7322 160.375 41.2161C160.855 41.7 161.096 42.4176 161.096 43.3688V48.2261H159.609V43.5478C159.609 42.9877 159.465 42.5535 159.177 42.2452C158.888 41.9337 158.487 41.7779 157.974 41.7779C157.443 41.7779 157.006 41.9453 156.661 42.2801C156.316 42.6115 156.144 43.0821 156.144 43.692Z" fill="#333333"/>
<path d="M30.7229 43.156C30.7229 42.5673 30.8975 41.9918 31.2245 41.5023C31.5516 41.0128 32.0165 40.6313 32.5604 40.406C33.1043 40.1807 33.7028 40.1217 34.2803 40.2366C34.8577 40.3514 35.3881 40.6349 35.8044 41.0512C36.2206 41.4675 36.5041 41.9979 36.619 42.5753C36.7339 43.1527 36.6749 43.7512 36.4496 44.2952C36.2243 44.8391 35.8428 45.304 35.3533 45.631C34.8638 45.9581 34.2883 46.1327 33.6995 46.1327C32.9101 46.1327 32.153 45.8191 31.5947 45.2608C31.0365 44.7026 30.7229 43.9455 30.7229 43.156ZM29.1136 43.156C29.1136 44.0629 29.3825 44.9495 29.8863 45.7035C30.3901 46.4576 31.1063 47.0453 31.9441 47.3924C32.782 47.7395 33.7039 47.8303 34.5934 47.6534C35.4829 47.4765 36.2999 47.0399 36.9412 46.3986C37.5825 45.7574 38.0193 44.9404 38.1963 44.0509C38.3733 43.1615 38.2825 42.2395 37.9356 41.4016C37.5886 40.5637 37.0009 39.8475 36.2469 39.3436C35.4929 38.8397 34.6064 38.5707 33.6995 38.5706C33.0974 38.5706 32.5011 38.6892 31.9447 38.9196C31.3884 39.15 30.8829 39.4878 30.4571 39.9136C30.0313 40.3394 29.6935 40.8449 29.4631 41.4012C29.2327 41.9576 29.1141 42.5539 29.1141 43.156H29.1136ZM37.3941 38.3888C37.394 38.6008 37.4568 38.808 37.5745 38.9842C37.6922 39.1605 37.8595 39.2979 38.0553 39.3791C38.2511 39.4602 38.4665 39.4815 38.6744 39.4403C38.8823 39.399 39.0733 39.297 39.2232 39.1472C39.3731 38.9974 39.4752 38.8064 39.5166 38.5986C39.558 38.3907 39.5369 38.1753 39.4558 37.9794C39.3748 37.7836 39.2375 37.6162 39.0613 37.4984C38.8851 37.3806 38.678 37.3177 38.466 37.3176C38.1819 37.3177 37.9095 37.4306 37.7086 37.6315C37.5077 37.8323 37.3947 38.1047 37.3944 38.3888H37.3941ZM30.0925 50.4248C29.5262 50.4184 28.9653 50.3145 28.4342 50.1177C28.0463 49.9744 27.6954 49.7461 27.4071 49.4497C27.1102 49.162 26.8819 48.8112 26.7391 48.4233C26.542 47.8923 26.4379 47.3313 26.4313 46.765C26.388 45.8236 26.3787 45.5409 26.3787 43.1562C26.3787 40.7716 26.388 40.4895 26.4313 39.5475C26.4384 38.9812 26.5422 38.4203 26.7384 37.8891C26.8817 37.5012 27.11 37.1503 27.4064 36.862C27.6942 36.565 28.0453 36.3367 28.4335 36.194C28.9647 35.997 29.526 35.893 30.0925 35.8867C31.0339 35.8434 31.3166 35.8342 33.6995 35.8342C36.0824 35.8342 36.3663 35.8434 37.3083 35.8867C37.8745 35.8938 38.4354 35.9977 38.9666 36.1938C39.3546 36.3369 39.7056 36.5652 39.9938 36.8618C40.2904 37.15 40.5187 37.5009 40.6618 37.8889C40.8586 38.42 40.9625 38.981 40.9689 39.5473C41.0121 40.4893 41.0214 40.7714 41.0214 43.156C41.0214 45.5407 41.0128 45.8228 40.9689 46.7648C40.962 47.3311 40.8582 47.892 40.6618 48.4231C40.5131 48.8083 40.2855 49.158 39.9936 49.4498C39.7016 49.7416 39.3518 49.9691 38.9666 50.1176C38.4356 50.3144 37.8746 50.4183 37.3083 50.4247C36.367 50.4679 36.0842 50.4772 33.6995 50.4772C31.3149 50.4772 31.0328 50.4686 30.0925 50.4247V50.4248ZM30.0179 34.2802C29.2772 34.2948 28.5443 34.4351 27.8504 34.695C27.2545 34.9192 26.7146 35.2707 26.2684 35.7249C25.8137 36.1707 25.4621 36.7106 25.2383 37.3067C24.9785 38.0006 24.8383 38.7336 24.8237 39.4744C24.7797 40.4266 24.7696 40.7309 24.7696 43.156C24.7696 45.5811 24.7797 45.8855 24.8237 46.8376C24.8384 47.5784 24.9786 48.3113 25.2385 49.0052C25.4623 49.6013 25.8138 50.1413 26.2684 50.5872C26.7148 51.0412 27.2545 51.3926 27.8502 51.6173C28.5441 51.8771 29.277 52.0173 30.0178 52.0321C30.9705 52.0753 31.2743 52.0862 33.6994 52.0862C36.1245 52.0862 36.4288 52.076 37.381 52.0321C38.1217 52.0174 38.8546 51.8771 39.5485 51.6173C40.1418 51.3879 40.6807 51.037 41.1305 50.5872C41.5803 50.1374 41.9312 49.5985 42.1606 49.0052C42.4208 48.3114 42.5611 47.5784 42.5754 46.8376C42.6186 45.8848 42.6279 45.5811 42.6279 43.156C42.6279 40.7309 42.6178 40.4266 42.5754 39.4744C42.5608 38.7337 42.4205 38.0007 42.1606 37.3069C41.936 36.7112 41.5846 36.1713 41.1307 35.7249C40.6849 35.2705 40.1453 34.9189 39.5495 34.6948C38.8557 34.4348 38.1227 34.2946 37.3818 34.2802C36.4298 34.2369 36.1253 34.2261 33.6995 34.2261C31.2737 34.2261 30.9698 34.2362 30.0172 34.2802" fill="url(#paint0_radial_5_405)"/>
<path d="M30.7229 43.156C30.7229 42.5673 30.8975 41.9918 31.2245 41.5023C31.5516 41.0128 32.0165 40.6313 32.5604 40.406C33.1043 40.1807 33.7028 40.1217 34.2803 40.2366C34.8577 40.3514 35.3881 40.6349 35.8044 41.0512C36.2206 41.4675 36.5041 41.9979 36.619 42.5753C36.7339 43.1527 36.6749 43.7512 36.4496 44.2952C36.2243 44.8391 35.8428 45.304 35.3533 45.631C34.8638 45.9581 34.2883 46.1327 33.6995 46.1327C32.9101 46.1327 32.153 45.8191 31.5947 45.2608C31.0365 44.7026 30.7229 43.9455 30.7229 43.156ZM29.1136 43.156C29.1136 44.0629 29.3825 44.9495 29.8863 45.7035C30.3901 46.4576 31.1063 47.0453 31.9441 47.3924C32.782 47.7395 33.7039 47.8303 34.5934 47.6534C35.4829 47.4765 36.2999 47.0399 36.9412 46.3986C37.5825 45.7574 38.0193 44.9404 38.1963 44.0509C38.3733 43.1615 38.2825 42.2395 37.9356 41.4016C37.5886 40.5637 37.0009 39.8475 36.2469 39.3436C35.4929 38.8397 34.6064 38.5707 33.6995 38.5706C33.0974 38.5706 32.5011 38.6892 31.9447 38.9196C31.3884 39.15 30.8829 39.4878 30.4571 39.9136C30.0313 40.3394 29.6935 40.8449 29.4631 41.4012C29.2327 41.9576 29.1141 42.5539 29.1141 43.156H29.1136ZM37.3941 38.3888C37.394 38.6008 37.4568 38.808 37.5745 38.9842C37.6922 39.1605 37.8595 39.2979 38.0553 39.3791C38.2511 39.4602 38.4665 39.4815 38.6744 39.4403C38.8823 39.399 39.0733 39.297 39.2232 39.1472C39.3731 38.9974 39.4752 38.8064 39.5166 38.5986C39.558 38.3907 39.5369 38.1753 39.4558 37.9794C39.3748 37.7836 39.2375 37.6162 39.0613 37.4984C38.8851 37.3806 38.678 37.3177 38.466 37.3176C38.1819 37.3177 37.9095 37.4306 37.7086 37.6315C37.5077 37.8323 37.3947 38.1047 37.3944 38.3888H37.3941ZM30.0925 50.4248C29.5262 50.4184 28.9653 50.3145 28.4342 50.1177C28.0463 49.9744 27.6954 49.7461 27.4071 49.4497C27.1102 49.162 26.8819 48.8112 26.7391 48.4233C26.542 47.8923 26.4379 47.3313 26.4313 46.765C26.388 45.8236 26.3787 45.5409 26.3787 43.1562C26.3787 40.7716 26.388 40.4895 26.4313 39.5475C26.4384 38.9812 26.5422 38.4203 26.7384 37.8891C26.8817 37.5012 27.11 37.1503 27.4064 36.862C27.6942 36.565 28.0453 36.3367 28.4335 36.194C28.9647 35.997 29.526 35.893 30.0925 35.8867C31.0339 35.8434 31.3166 35.8342 33.6995 35.8342C36.0824 35.8342 36.3663 35.8434 37.3083 35.8867C37.8745 35.8938 38.4354 35.9977 38.9666 36.1938C39.3546 36.3369 39.7056 36.5652 39.9938 36.8618C40.2904 37.15 40.5187 37.5009 40.6618 37.8889C40.8586 38.42 40.9625 38.981 40.9689 39.5473C41.0121 40.4893 41.0214 40.7714 41.0214 43.156C41.0214 45.5407 41.0128 45.8228 40.9689 46.7648C40.962 47.3311 40.8582 47.892 40.6618 48.4231C40.5131 48.8083 40.2855 49.158 39.9936 49.4498C39.7016 49.7416 39.3518 49.9691 38.9666 50.1176C38.4356 50.3144 37.8746 50.4183 37.3083 50.4247C36.367 50.4679 36.0842 50.4772 33.6995 50.4772C31.3149 50.4772 31.0328 50.4688 30.0925 50.4248ZM30.0179 34.2802C29.2772 34.2948 28.5443 34.4351 27.8504 34.695C27.2545 34.9192 26.7146 35.2707 26.2684 35.7249C25.8137 36.1707 25.4621 36.7106 25.2383 37.3067C24.9785 38.0006 24.8383 38.7336 24.8237 39.4744C24.7797 40.4266 24.7696 40.7309 24.7696 43.156C24.7696 45.5811 24.7797 45.8855 24.8237 46.8376C24.8384 47.5784 24.9786 48.3113 25.2385 49.0052C25.4623 49.6013 25.8138 50.1413 26.2684 50.5872C26.7148 51.0412 27.2545 51.3926 27.8502 51.6173C28.5441 51.8771 29.277 52.0173 30.0178 52.0321C30.9705 52.0753 31.2743 52.0862 33.6994 52.0862C36.1245 52.0862 36.4288 52.076 37.381 52.0321C38.1217 52.0174 38.8546 51.8771 39.5485 51.6173C40.1418 51.3879 40.6807 51.037 41.1305 50.5872C41.5803 50.1374 41.9312 49.5985 42.1606 49.0052C42.4208 48.3114 42.5611 47.5784 42.5754 46.8376C42.6186 45.8848 42.6279 45.5811 42.6279 43.156C42.6279 40.7309 42.6178 40.4266 42.5754 39.4744C42.5608 38.7337 42.4205 38.0007 42.1606 37.3069C41.936 36.7112 41.5846 36.1713 41.1307 35.7249C40.6849 35.2705 40.1453 34.9189 39.5495 34.6948C38.8557 34.4348 38.1227 34.2946 37.3818 34.2802C36.4298 34.2369 36.1253 34.2261 33.6995 34.2261C31.2737 34.2261 30.9698 34.2362 30.0172 34.2802" fill="url(#paint1_radial_5_405)"/>
<path d="M232.463 36.0115H222.462C221.894 36.0115 221.349 36.2373 220.947 36.6391C220.545 37.041 220.319 37.5861 220.319 38.1545V48.1551C220.319 48.7235 220.545 49.2686 220.947 49.6705C221.349 50.0724 221.894 50.2982 222.462 50.2982H232.463C233.032 50.2982 233.577 50.0724 233.978 49.6705C234.38 49.2686 234.606 48.7235 234.606 48.1551V38.1545C234.606 37.5861 234.38 37.041 233.978 36.6391C233.577 36.2373 233.032 36.0115 232.463 36.0115ZM232.463 37.4401C232.653 37.4401 232.834 37.5154 232.968 37.6494C233.102 37.7833 233.177 37.965 233.177 38.1545V42.4405H228.177V37.4401H232.463ZM221.748 38.1545C221.748 37.965 221.823 37.7833 221.957 37.6494C222.091 37.5154 222.273 37.4401 222.462 37.4401H226.748V42.4405H221.748V38.1545ZM222.462 48.8695C222.273 48.8695 222.091 48.7942 221.957 48.6603C221.823 48.5263 221.748 48.3446 221.748 48.1551V43.8691H226.748V48.8695H222.462ZM233.177 48.1551C233.177 48.3446 233.102 48.5263 232.968 48.6603C232.834 48.7942 232.653 48.8695 232.463 48.8695H228.177V43.8691H233.177V48.1551Z" fill="#999999"/>
<circle cx="227.461" cy="43.1546" r="16.519" stroke="#EEF0F2" stroke-width="0.892917"/>
<path d="M267.437 36.7251C267.437 36.3306 267.129 36.0107 266.75 36.0107C266.37 36.0107 266.063 36.3306 266.063 36.7251V44.0012L264.763 42.649C264.494 42.37 264.059 42.37 263.791 42.649C263.523 42.9279 263.523 43.3802 263.791 43.6592L266.264 46.2308C266.337 46.3069 266.423 46.3623 266.514 46.3969C266.588 46.4248 266.667 46.44 266.75 46.44C266.857 46.44 266.958 46.4145 267.049 46.3689C267.091 46.3479 267.131 46.3223 267.168 46.292C267.194 46.2714 267.218 46.2489 267.241 46.2247L269.708 43.6592C269.976 43.3802 269.976 42.9279 269.708 42.649C269.44 42.37 269.005 42.37 268.737 42.649L267.437 44.0011V36.7251Z" fill="#999999"/>
<path d="M261.186 45.6542C261.565 45.6542 261.873 45.9741 261.873 46.3686V48.2973C261.873 48.4488 261.931 48.5942 262.034 48.7014C262.137 48.8085 262.277 48.8688 262.422 48.8688H271.077C271.223 48.8688 271.362 48.8085 271.465 48.7014C271.568 48.5942 271.626 48.4488 271.626 48.2973V46.3686C271.626 45.9741 271.934 45.6542 272.313 45.6542C272.692 45.6542 273 45.9741 273 46.3686V48.2973C273 48.8278 272.797 49.3365 272.437 49.7116C272.076 50.0867 271.587 50.2974 271.077 50.2974H262.422C261.912 50.2974 261.423 50.0867 261.062 49.7116C260.702 49.3365 260.499 48.8278 260.499 48.2973V46.3686C260.499 45.9741 260.807 45.6542 261.186 45.6542Z" fill="#999999"/>
<circle cx="266.75" cy="43.1539" r="16.519" stroke="#EEF0F2" stroke-width="0.892917"/>
<path d="M56.9149 216.827C56.9149 215.101 58.3141 213.702 60.0401 213.702C61.7661 213.702 63.1653 215.101 63.1653 216.827V291.386H56.9149V216.827Z" fill="#5F6DFF"/>
<path d="M264.071 145.393C264.071 143.667 265.47 142.268 267.196 142.268C268.922 142.268 270.322 143.667 270.322 145.393V291.385H264.071V145.393Z" fill="#5F6DFF"/>
<path d="M238.177 223.078C238.177 221.352 239.576 219.953 241.302 219.953C243.028 219.953 244.427 221.352 244.427 223.078V291.387H238.177V223.078Z" fill="#5F6DFF"/>
<path d="M212.282 166.823C212.282 165.097 213.681 163.698 215.407 163.698C217.133 163.698 218.532 165.097 218.532 166.823V291.385H212.282V166.823Z" fill="#5F6DFF"/>
<path d="M186.388 182.004C186.388 180.278 187.787 178.879 189.513 178.879C191.239 178.879 192.638 180.278 192.638 182.004V291.386H186.388V182.004Z" fill="#5F6DFF"/>
<path d="M160.493 216.827C160.493 215.101 161.893 213.701 163.619 213.701C165.345 213.701 166.744 215.101 166.744 216.827V291.385H160.493V216.827Z" fill="#5F6DFF"/>
<path d="M134.599 224.864C134.599 223.138 135.998 221.739 137.724 221.739C139.45 221.739 140.849 223.138 140.849 224.864V291.386H134.599V224.864Z" fill="#5F6DFF"/>
<path d="M108.703 143.608C108.703 141.882 110.103 140.482 111.829 140.482C113.555 140.482 114.954 141.882 114.954 143.608V291.385H108.703V143.608Z" fill="#5F6DFF"/>
<path d="M82.8134 248.078C82.8134 246.352 84.2126 244.953 85.9386 244.953C87.6646 244.953 89.0638 246.352 89.0638 248.078V291.385H82.8134V248.078Z" fill="#5F6DFF"/>
<defs>
<filter id="filter0_d_5_405" x="-51.3398" y="-11.7051" width="410.271" height="443.309" filterUnits="userSpaceOnUse" color-interpolation-filters="sRGB">
<feFlood flood-opacity="0" result="BackgroundImageFix"/>
<feColorMatrix in="SourceAlpha" type="matrix" values="0 0 0 0 0 0 0 0 0 0 0 0 0 0 0 0 0 0 127 0" result="hardAlpha"/>
<feMorphology radius="18" operator="erode" in="SourceAlpha" result="effect1_dropShadow_5_405"/>
<feOffset dy="40"/>
<feGaussianBlur stdDeviation="35"/>
<feColorMatrix type="matrix" values="0 0 0 0 0 0 0 0 0 0 0 0 0 0 0 0 0 0 0.1 0"/>
<feBlend mode="normal" in2="BackgroundImageFix" result="effect1_dropShadow_5_405"/>
<feBlend mode="normal" in="SourceGraphic" in2="effect1_dropShadow_5_405" result="shape"/>
</filter>
<radialGradient id="paint0_radial_5_405" cx="0" cy="0" r="1" gradientUnits="userSpaceOnUse" gradientTransform="translate(27.1423 52.1704) scale(23.3137)">
<stop offset="0.09" stop-color="#FA8F21"/>
<stop offset="0.78" stop-color="#D82D7E"/>
</radialGradient>
<radialGradient id="paint1_radial_5_405" cx="0" cy="0" r="1" gradientUnits="userSpaceOnUse" gradientTransform="translate(35.6009 52.9704) scale(18.3744)">
<stop offset="0.64" stop-color="#8C3AAA" stop-opacity="0"/>
<stop offset="1" stop-color="#8C3AAA"/>
</radialGradient>
</defs>
</svg>
