<svg width="300" height="113" viewBox="0 0 248 113" fill="none" xmlns="http://www.w3.org/2000/svg">
<rect x="0.75" y="0.75" width="378.5" height="111.5" rx="7.25" fill="white" stroke="#EEF0F2" stroke-width="1.5"/>
<path d="M149.278 42V30.3636H156.494V31.875H151.034V35.4205H155.977V36.9261H151.034V42H149.278ZM161.553 42.1761C160.734 42.1761 160.02 41.9886 159.411 41.6136C158.801 41.2386 158.327 40.714 157.99 40.0398C157.653 39.3617 157.484 38.5739 157.484 37.6761C157.484 36.7708 157.653 35.9792 157.99 35.3011C158.327 34.6231 158.801 34.0966 159.411 33.7216C160.02 33.3466 160.734 33.1591 161.553 33.1591C162.375 33.1591 163.089 33.3466 163.695 33.7216C164.304 34.0966 164.778 34.6231 165.115 35.3011C165.452 35.9792 165.621 36.7708 165.621 37.6761C165.621 38.5739 165.452 39.3617 165.115 40.0398C164.778 40.714 164.304 41.2386 163.695 41.6136C163.089 41.9886 162.375 42.1761 161.553 42.1761ZM161.558 40.75C162.092 40.75 162.532 40.6098 162.876 40.3295C163.225 40.0492 163.482 39.6761 163.649 39.2102C163.82 38.7405 163.905 38.2273 163.905 37.6705C163.905 37.1136 163.82 36.6004 163.649 36.1307C163.482 35.661 163.225 35.286 162.876 35.0057C162.532 34.7216 162.092 34.5795 161.558 34.5795C161.024 34.5795 160.583 34.7216 160.234 35.0057C159.886 35.286 159.626 35.661 159.456 36.1307C159.286 36.6004 159.2 37.1136 159.2 37.6705C159.2 38.2273 159.286 38.7405 159.456 39.2102C159.626 39.6761 159.886 40.0492 160.234 40.3295C160.583 40.6098 161.024 40.75 161.558 40.75ZM169.216 30.3636V42H167.517V30.3636H169.216ZM173.2 30.3636V42H171.501V30.3636H173.2ZM179.162 42.1761C178.344 42.1761 177.63 41.9886 177.02 41.6136C176.41 41.2386 175.937 40.714 175.599 40.0398C175.262 39.3617 175.094 38.5739 175.094 37.6761C175.094 36.7708 175.262 35.9792 175.599 35.3011C175.937 34.6231 176.41 34.0966 177.02 33.7216C177.63 33.3466 178.344 33.1591 179.162 33.1591C179.984 33.1591 180.698 33.3466 181.304 33.7216C181.914 34.0966 182.387 34.6231 182.724 35.3011C183.062 35.9792 183.23 36.7708 183.23 37.6761C183.23 38.5739 183.062 39.3617 182.724 40.0398C182.387 40.714 181.914 41.2386 181.304 41.6136C180.698 41.9886 179.984 42.1761 179.162 42.1761ZM179.168 40.75C179.702 40.75 180.141 40.6098 180.486 40.3295C180.834 40.0492 181.092 39.6761 181.259 39.2102C181.429 38.7405 181.514 38.2273 181.514 37.6705C181.514 37.1136 181.429 36.6004 181.259 36.1307C181.092 35.661 180.834 35.286 180.486 35.0057C180.141 34.7216 179.702 34.5795 179.168 34.5795C178.634 34.5795 178.192 34.7216 177.844 35.0057C177.495 35.286 177.236 35.661 177.065 36.1307C176.895 36.6004 176.81 37.1136 176.81 37.6705C176.81 38.2273 176.895 38.7405 177.065 39.2102C177.236 39.6761 177.495 40.0492 177.844 40.3295C178.192 40.6098 178.634 40.75 179.168 40.75ZM186.753 42L184.185 33.2727H185.94L187.651 39.6818H187.736L189.452 33.2727H191.207L192.912 39.6534H192.997L194.696 33.2727H196.452L193.889 42H192.156L190.384 35.6989H190.253L188.48 42H186.753ZM201.56 42.1761C200.704 42.1761 199.965 41.9905 199.344 41.6193C198.723 41.2481 198.243 40.7273 197.906 40.0568C197.573 39.3826 197.406 38.5947 197.406 37.6932C197.406 36.7992 197.573 36.0114 197.906 35.3295C198.243 34.6477 198.713 34.1155 199.315 33.733C199.921 33.3504 200.63 33.1591 201.44 33.1591C202.099 33.1591 202.723 33.3068 203.31 33.6023C203.901 33.8939 204.38 34.3617 204.747 35.0057C205.118 35.6458 205.304 36.4924 205.304 37.5455V38.1477H199.099C199.122 38.9886 199.359 39.6364 199.81 40.0909C200.26 40.5455 200.849 40.7727 201.577 40.7727C202.062 40.7727 202.48 40.6686 202.832 40.4602C203.185 40.2519 203.437 39.9413 203.588 39.5284L205.196 39.8182C205.003 40.5265 204.586 41.0966 203.946 41.5284C203.306 41.9602 202.51 42.1761 201.56 42.1761ZM199.105 36.875H203.639C203.635 36.2083 203.435 35.6572 203.037 35.2216C202.639 34.7822 202.111 34.5625 201.452 34.5625C200.993 34.5625 200.592 34.6705 200.247 34.8864C199.906 35.0985 199.635 35.3807 199.435 35.733C199.238 36.0814 199.128 36.4621 199.105 36.875ZM207.189 42V33.2727H208.831V34.6591H208.922C209.081 34.1894 209.361 33.8201 209.763 33.5511C210.164 33.2784 210.623 33.142 211.138 33.142C211.376 33.142 211.59 33.1705 211.78 33.2273C211.969 33.2841 212.136 33.3617 212.28 33.4602L211.734 34.8807C211.632 34.8277 211.517 34.786 211.388 34.7557C211.259 34.7254 211.111 34.7102 210.945 34.7102C210.357 34.7102 209.867 34.8958 209.473 35.267C209.083 35.6345 208.888 36.1023 208.888 36.6705V42H207.189ZM225.81 34.0398C225.59 33.3504 225.223 32.8068 224.707 32.4091C224.196 32.0076 223.554 31.8068 222.781 31.8068C222.126 31.8068 221.535 31.9754 221.009 32.3125C220.482 32.6496 220.065 33.1439 219.759 33.7955C219.455 34.4432 219.304 35.2367 219.304 36.1761C219.304 37.1193 219.457 37.9167 219.764 38.5682C220.071 39.2197 220.491 39.714 221.026 40.0511C221.56 40.3883 222.168 40.5568 222.849 40.5568C223.781 40.5568 224.533 40.2822 225.105 39.733C225.677 39.1799 225.973 38.4337 225.991 37.4943H223.116V36.0455H227.69V37.3693C227.69 38.3466 227.482 39.1951 227.065 39.9148C226.652 40.6307 226.082 41.1837 225.355 41.5739C224.628 41.964 223.793 42.1591 222.849 42.1591C221.8 42.1591 220.878 41.9186 220.082 41.4375C219.287 40.9527 218.668 40.2633 218.224 39.3693C217.781 38.4754 217.56 37.4148 217.56 36.1875C217.56 34.9489 217.785 33.8826 218.236 32.9886C218.687 32.0947 219.304 31.4072 220.088 30.9261C220.872 30.4451 221.766 30.2045 222.77 30.2045C223.607 30.2045 224.366 30.3674 225.048 30.6932C225.73 31.0152 226.295 31.464 226.741 32.0398C227.192 32.6155 227.482 33.2822 227.611 34.0398H225.81ZM229.783 42V33.2727H231.425V34.6591H231.516C231.675 34.1894 231.955 33.8201 232.357 33.5511C232.758 33.2784 233.216 33.142 233.732 33.142C233.97 33.142 234.184 33.1705 234.374 33.2273C234.563 33.2841 234.73 33.3617 234.874 33.4602L234.328 34.8807C234.226 34.8277 234.11 34.786 233.982 34.7557C233.853 34.7254 233.705 34.7102 233.538 34.7102C232.951 34.7102 232.461 34.8958 232.067 35.267C231.677 35.6345 231.482 36.1023 231.482 36.6705V42H229.783ZM239.521 42.1761C238.703 42.1761 237.989 41.9886 237.379 41.6136C236.769 41.2386 236.296 40.714 235.959 40.0398C235.622 39.3617 235.453 38.5739 235.453 37.6761C235.453 36.7708 235.622 35.9792 235.959 35.3011C236.296 34.6231 236.769 34.0966 237.379 33.7216C237.989 33.3466 238.703 33.1591 239.521 33.1591C240.343 33.1591 241.057 33.3466 241.663 33.7216C242.273 34.0966 242.747 34.6231 243.084 35.3011C243.421 35.9792 243.589 36.7708 243.589 37.6761C243.589 38.5739 243.421 39.3617 243.084 40.0398C242.747 40.714 242.273 41.2386 241.663 41.6136C241.057 41.9886 240.343 42.1761 239.521 42.1761ZM239.527 40.75C240.061 40.75 240.5 40.6098 240.845 40.3295C241.194 40.0492 241.451 39.6761 241.618 39.2102C241.788 38.7405 241.874 38.2273 241.874 37.6705C241.874 37.1136 241.788 36.6004 241.618 36.1307C241.451 35.661 241.194 35.286 240.845 35.0057C240.5 34.7216 240.061 34.5795 239.527 34.5795C238.993 34.5795 238.552 34.7216 238.203 35.0057C237.855 35.286 237.595 35.661 237.425 36.1307C237.254 36.6004 237.169 37.1136 237.169 37.6705C237.169 38.2273 237.254 38.7405 237.425 39.2102C237.595 39.6761 237.855 40.0492 238.203 40.3295C238.552 40.6098 238.993 40.75 239.527 40.75ZM247.112 42L244.544 33.2727H246.3L248.01 39.6818H248.095L249.811 33.2727H251.567L253.271 39.6534H253.357L255.055 33.2727H256.811L254.249 42H252.516L250.743 35.6989H250.612L248.839 42H247.112ZM262.497 33.2727V34.6364H260.707V39.4375C260.707 39.9299 260.812 40.2481 261.02 40.392C261.232 40.5322 261.476 40.6023 261.753 40.6023C261.889 40.6023 262.009 40.5928 262.111 40.5739C262.213 40.5549 262.293 40.5398 262.349 40.5284L262.656 41.9318C262.558 41.9697 262.416 42.0076 262.23 42.0455C262.048 42.0871 261.823 42.1098 261.554 42.1136C261.107 42.1212 260.688 42.0417 260.298 41.875C259.912 41.7083 259.599 41.4508 259.361 41.1023C259.126 40.7538 259.009 40.3163 259.009 39.7898V34.6364H257.73V33.2727H259.009V31.1818H260.707V33.2727H262.497ZM266.263 36.8182V42H264.564V30.3636H266.24V34.6932H266.348C266.553 34.2197 266.865 33.8466 267.286 33.5739C267.706 33.2973 268.255 33.1591 268.933 33.1591C269.831 33.1591 270.553 33.4356 271.098 33.9886C271.647 34.5417 271.922 35.3617 271.922 36.4489V42H270.223V36.6534C270.223 36.0133 270.058 35.517 269.729 35.1648C269.399 34.8087 268.941 34.6307 268.354 34.6307C267.748 34.6307 267.248 34.822 266.854 35.2045C266.46 35.5833 266.263 36.1212 266.263 36.8182Z" fill="#8A8E97"/>
<rect x="20" y="20" width="104" height="73" rx="6" fill="#F3F5FA"/>
<path d="M51.7216 42.9091V72H46.4375V49.642H46.196C45.9119 50.0871 45.2491 50.5606 44.2074 51.0625C43.1657 51.5549 41.8258 51.8011 40.1875 51.8011V47.5398C41.1913 47.5398 42.0862 47.3646 42.8722 47.0142C43.6581 46.6544 44.3258 46.2187 44.875 45.7074C45.4337 45.1866 45.8646 44.6705 46.1676 44.1591C46.4706 43.6477 46.6364 43.2311 46.6648 42.9091H51.7216ZM57.8143 66.6023V62.4119L70.1581 42.9091H76.7206V62.2699H80.4422V66.6023H76.7206V72H71.6922V66.6023H57.8143ZM71.749 62.2699V48.875H71.5217L63.2121 62.0426V62.2699H71.749ZM84.2374 72V42.9091H89.3794V58.946H89.7345L97.5754 50.1818H103.584L95.1322 59.5994L104.081 72H97.9305L91.2544 62.6676L89.3794 64.6705V72H84.2374Z" fill="#191124"/>
<rect x="148" y="77" width="134" height="8" rx="4" fill="#F3F5FA"/>
<rect x="148" y="61" width="208" height="8" rx="4" fill="#F3F5FA"/>
</svg>
