<svg width="309" height="291" viewBox="0 0 309 291" fill="none" xmlns="http://www.w3.org/2000/svg">
<g filter="url(#filter0_d_5_441)">
<rect y="0.0078125" width="309" height="290.983" rx="8" fill="white"/>
</g>
<text transform="translate(48.6406 31.54)" fill="#333333" xml:space="preserve" style="white-space: pre" font-family="Inter" font-size="14" font-weight="500" letter-spacing="0em"><tspan x="0" y="13.5909">Media Type</tspan></text>
<path d="M28.522 40.5498C28.522 39.9559 28.6981 39.3752 29.0281 38.8813C29.3581 38.3875 29.8271 38.0026 30.3759 37.7752C30.9247 37.5479 31.5285 37.4885 32.1111 37.6043C32.6936 37.7202 33.2287 38.0063 33.6487 38.4263C34.0687 38.8463 34.3548 39.3814 34.4706 39.9639C34.5865 40.5465 34.527 41.1503 34.2997 41.6991C34.0724 42.2479 33.6875 42.7169 33.1936 43.0469C32.6998 43.3769 32.1191 43.553 31.5252 43.553C30.7287 43.553 29.9648 43.2366 29.4016 42.6734C28.8384 42.1102 28.522 41.3463 28.522 40.5498ZM26.8983 40.5498C26.8983 41.4648 27.1696 42.3592 27.678 43.12C28.1863 43.8808 28.9088 44.4738 29.7541 44.8239C30.5994 45.1741 31.5296 45.2657 32.427 45.0873C33.3244 44.9088 34.1487 44.4683 34.7957 43.8213C35.4428 43.1744 35.8834 42.3501 36.062 41.4527C36.2406 40.5553 36.149 39.6251 35.7989 38.7798C35.4489 37.9344 34.856 37.2119 34.0953 36.7034C33.3345 36.195 32.4401 35.9236 31.5252 35.9235C30.9176 35.9235 30.316 36.0431 29.7547 36.2756C29.1934 36.5081 28.6834 36.8489 28.2538 37.2785C27.8242 37.7081 27.4835 38.2181 27.251 38.7794C27.0185 39.3407 26.8988 39.9423 26.8989 40.5498H26.8983ZM35.2526 35.7401C35.2526 35.954 35.3159 36.163 35.4347 36.3409C35.5534 36.5187 35.7222 36.6573 35.9197 36.7392C36.1173 36.8211 36.3346 36.8426 36.5444 36.8009C36.7541 36.7593 36.9468 36.6564 37.098 36.5052C37.2493 36.3541 37.3523 36.1615 37.3941 35.9518C37.4359 35.7421 37.4145 35.5247 37.3328 35.3271C37.251 35.1295 37.1125 34.9606 36.9347 34.8418C36.757 34.7229 36.548 34.6594 36.3341 34.6594C36.0475 34.6595 35.7726 34.7734 35.5699 34.976C35.3672 35.1787 35.2532 35.4535 35.253 35.7401H35.2526ZM27.886 47.8834C27.3147 47.8769 26.7487 47.7721 26.2129 47.5736C25.8216 47.4289 25.4675 47.1987 25.1766 46.8996C24.8771 46.6094 24.6468 46.2554 24.5027 45.864C24.3038 45.3283 24.1988 44.7623 24.1921 44.1909C24.1485 43.2412 24.1391 42.9559 24.1391 40.55C24.1391 38.1441 24.1485 37.8595 24.1921 36.9091C24.1993 36.3378 24.3041 35.7719 24.502 35.236C24.6466 34.8446 24.8769 34.4906 25.1759 34.1997C25.4663 33.9 25.8205 33.6697 26.2122 33.5257C26.7482 33.327 27.3144 33.2221 27.886 33.2157C28.8357 33.1721 29.121 33.1627 31.5252 33.1627C33.9293 33.1627 34.2157 33.1721 35.1661 33.2157C35.7374 33.2229 36.3032 33.3277 36.8392 33.5256C37.2307 33.6699 37.5848 33.9002 37.8755 34.1995C38.1748 34.4902 38.4051 34.8443 38.5494 35.2358C38.748 35.7716 38.8528 36.3375 38.8593 36.9089C38.9029 37.8593 38.9123 38.1439 38.9123 40.5498C38.9123 42.9557 38.9036 43.2403 38.8593 44.1907C38.8524 44.7621 38.7476 45.328 38.5494 45.8639C38.3995 46.2524 38.1699 46.6053 37.8753 46.8997C37.5808 47.1941 37.2278 47.4236 36.8392 47.5734C36.3034 47.772 35.7374 47.8768 35.1661 47.8832C34.2164 47.9269 33.9311 47.9362 31.5252 47.9362C29.1193 47.9362 28.8347 47.9276 27.886 47.8832V47.8834ZM27.8108 31.5949C27.0634 31.6097 26.3239 31.7512 25.6239 32.0134C25.0227 32.2396 24.478 32.5942 24.0278 33.0525C23.5691 33.5022 23.2144 34.047 22.9885 34.6484C22.7264 35.3485 22.5849 36.088 22.5702 36.8354C22.5259 37.7961 22.5156 38.1031 22.5156 40.5498C22.5156 42.9965 22.5259 43.3036 22.5702 44.2642C22.585 45.0116 22.7265 45.751 22.9887 46.4511C23.2145 47.0525 23.5692 47.5973 24.0278 48.0472C24.4782 48.5052 25.0227 48.8598 25.6237 49.0865C26.3238 49.3486 27.0632 49.4901 27.8106 49.505C28.7718 49.5486 29.0783 49.5595 31.525 49.5595C33.9717 49.5595 34.2787 49.5493 35.2394 49.505C35.9868 49.4902 36.7262 49.3486 37.4262 49.0865C38.0249 48.855 38.5685 48.501 39.0224 48.0472C39.4762 47.5934 39.8302 47.0497 40.0616 46.4511C40.3242 45.7511 40.4657 45.0116 40.4801 44.2642C40.5238 43.3029 40.5331 42.9965 40.5331 40.5498C40.5331 38.1031 40.5229 37.7961 40.4801 36.8354C40.4654 36.088 40.3238 35.3486 40.0616 34.6486C39.8351 34.0475 39.4805 33.5029 39.0225 33.0525C38.5728 32.594 38.0284 32.2393 37.4273 32.0132C36.7273 31.7509 35.9877 31.6094 35.2403 31.5949C34.2798 31.5512 33.9726 31.5403 31.5252 31.5403C29.0778 31.5403 28.7711 31.5505 27.8101 31.5949" fill="url(#paint0_radial_5_441)"/>
<path d="M28.522 40.5498C28.522 39.9559 28.6981 39.3752 29.0281 38.8813C29.3581 38.3875 29.8271 38.0026 30.3759 37.7752C30.9247 37.5479 31.5285 37.4885 32.1111 37.6043C32.6936 37.7202 33.2287 38.0063 33.6487 38.4263C34.0687 38.8463 34.3548 39.3814 34.4706 39.9639C34.5865 40.5465 34.527 41.1503 34.2997 41.6991C34.0724 42.2479 33.6875 42.7169 33.1936 43.0469C32.6998 43.3769 32.1191 43.553 31.5252 43.553C30.7287 43.553 29.9648 43.2366 29.4016 42.6734C28.8384 42.1102 28.522 41.3463 28.522 40.5498ZM26.8983 40.5498C26.8983 41.4648 27.1696 42.3592 27.678 43.12C28.1863 43.8808 28.9088 44.4738 29.7541 44.8239C30.5994 45.1741 31.5296 45.2657 32.427 45.0873C33.3244 44.9088 34.1487 44.4683 34.7957 43.8213C35.4428 43.1744 35.8834 42.3501 36.062 41.4527C36.2406 40.5553 36.149 39.6251 35.7989 38.7798C35.4489 37.9344 34.856 37.2119 34.0953 36.7034C33.3345 36.195 32.4401 35.9236 31.5252 35.9235C30.9176 35.9235 30.316 36.0431 29.7547 36.2756C29.1934 36.5081 28.6834 36.8489 28.2538 37.2785C27.8242 37.7081 27.4835 38.2181 27.251 38.7794C27.0185 39.3407 26.8988 39.9423 26.8989 40.5498H26.8983ZM35.2526 35.7401C35.2526 35.954 35.3159 36.163 35.4347 36.3409C35.5534 36.5187 35.7222 36.6573 35.9197 36.7392C36.1173 36.8211 36.3346 36.8426 36.5444 36.8009C36.7541 36.7593 36.9468 36.6564 37.098 36.5052C37.2493 36.3541 37.3523 36.1615 37.3941 35.9518C37.4359 35.7421 37.4145 35.5247 37.3328 35.3271C37.251 35.1295 37.1125 34.9606 36.9347 34.8418C36.757 34.7229 36.548 34.6594 36.3341 34.6594C36.0475 34.6595 35.7726 34.7734 35.5699 34.976C35.3672 35.1787 35.2532 35.4535 35.253 35.7401H35.2526ZM27.886 47.8834C27.3147 47.8769 26.7487 47.7721 26.2129 47.5736C25.8216 47.4289 25.4675 47.1987 25.1766 46.8996C24.8771 46.6094 24.6468 46.2554 24.5027 45.864C24.3038 45.3283 24.1988 44.7623 24.1921 44.1909C24.1485 43.2412 24.1391 42.9559 24.1391 40.55C24.1391 38.1441 24.1485 37.8595 24.1921 36.9091C24.1993 36.3378 24.3041 35.7719 24.502 35.236C24.6466 34.8446 24.8769 34.4906 25.1759 34.1997C25.4663 33.9 25.8205 33.6697 26.2122 33.5257C26.7482 33.327 27.3144 33.2221 27.886 33.2157C28.8357 33.1721 29.121 33.1627 31.5252 33.1627C33.9293 33.1627 34.2157 33.1721 35.1661 33.2157C35.7374 33.2229 36.3032 33.3277 36.8392 33.5256C37.2307 33.6699 37.5848 33.9002 37.8755 34.1995C38.1748 34.4902 38.4051 34.8443 38.5494 35.2358C38.748 35.7716 38.8528 36.3375 38.8593 36.9089C38.9029 37.8593 38.9123 38.1439 38.9123 40.5498C38.9123 42.9557 38.9036 43.2403 38.8593 44.1907C38.8524 44.7621 38.7476 45.328 38.5494 45.8639C38.3995 46.2524 38.1699 46.6053 37.8753 46.8997C37.5808 47.1941 37.2278 47.4236 36.8392 47.5734C36.3034 47.772 35.7374 47.8768 35.1661 47.8832C34.2164 47.9269 33.9311 47.9362 31.5252 47.9362C29.1193 47.9362 28.8347 47.9278 27.886 47.8834ZM27.8108 31.5949C27.0634 31.6097 26.3239 31.7512 25.6239 32.0134C25.0227 32.2396 24.478 32.5942 24.0278 33.0525C23.5691 33.5022 23.2144 34.047 22.9885 34.6484C22.7264 35.3485 22.5849 36.088 22.5702 36.8354C22.5259 37.7961 22.5156 38.1031 22.5156 40.5498C22.5156 42.9965 22.5259 43.3036 22.5702 44.2642C22.585 45.0116 22.7265 45.751 22.9887 46.4511C23.2145 47.0525 23.5692 47.5973 24.0278 48.0472C24.4782 48.5052 25.0227 48.8598 25.6237 49.0865C26.3238 49.3486 27.0632 49.4901 27.8106 49.505C28.7718 49.5486 29.0783 49.5595 31.525 49.5595C33.9717 49.5595 34.2787 49.5493 35.2394 49.505C35.9868 49.4902 36.7262 49.3486 37.4262 49.0865C38.0249 48.855 38.5685 48.501 39.0224 48.0472C39.4762 47.5934 39.8302 47.0497 40.0616 46.4511C40.3242 45.7511 40.4657 45.0116 40.4801 44.2642C40.5238 43.3029 40.5331 42.9965 40.5331 40.5498C40.5331 38.1031 40.5229 37.7961 40.4801 36.8354C40.4654 36.088 40.3238 35.3486 40.0616 34.6486C39.8351 34.0475 39.4805 33.5029 39.0225 33.0525C38.5728 32.594 38.0284 32.2393 37.4273 32.0132C36.7273 31.7509 35.9877 31.6094 35.2403 31.5949C34.2798 31.5512 33.9726 31.5403 31.5252 31.5403C29.0778 31.5403 28.7711 31.5505 27.8101 31.5949" fill="url(#paint1_radial_5_441)"/>
<path d="M232.064 33.3413H221.974C221.401 33.3413 220.851 33.5691 220.445 33.9746C220.04 34.38 219.812 34.93 219.812 35.5034V45.5932C219.812 46.1666 220.04 46.7166 220.445 47.122C220.851 47.5275 221.401 47.7553 221.974 47.7553H232.064C232.637 47.7553 233.187 47.5275 233.593 47.122C233.998 46.7166 234.226 46.1666 234.226 45.5932V35.5034C234.226 34.93 233.998 34.38 233.593 33.9746C233.187 33.5691 232.637 33.3413 232.064 33.3413ZM232.064 34.7827C232.255 34.7827 232.438 34.8586 232.573 34.9938C232.709 35.129 232.785 35.3123 232.785 35.5034V39.8276H227.74V34.7827H232.064ZM221.253 35.5034C221.253 35.3123 221.329 35.129 221.464 34.9938C221.6 34.8586 221.783 34.7827 221.974 34.7827H226.298V39.8276H221.253V35.5034ZM221.974 46.3139C221.783 46.3139 221.6 46.238 221.464 46.1028C221.329 45.9677 221.253 45.7843 221.253 45.5932V41.269H226.298V46.3139H221.974ZM232.785 45.5932C232.785 45.7843 232.709 45.9677 232.573 46.1028C232.438 46.238 232.255 46.3139 232.064 46.3139H227.74V41.269H232.785V45.5932Z" fill="#666666"/>
<circle cx="227.019" cy="40.5483" r="16.6662" stroke="#EEF0F2" stroke-width="0.900875"/>
<path d="M267.347 34.0627C267.347 33.6647 267.037 33.342 266.654 33.342C266.271 33.342 265.961 33.6647 265.961 34.0627V41.4037L264.649 40.0394C264.379 39.758 263.94 39.758 263.669 40.0394C263.399 40.3209 263.399 40.7772 263.669 41.0586L266.164 43.6532C266.238 43.73 266.324 43.7858 266.416 43.8207C266.491 43.8489 266.571 43.8643 266.654 43.8643C266.762 43.8643 266.865 43.8385 266.956 43.7925C266.998 43.7713 267.038 43.7455 267.077 43.7149C267.103 43.6941 267.127 43.6714 267.15 43.6471L269.639 41.0586C269.909 40.7772 269.909 40.3209 269.639 40.0394C269.368 39.758 268.929 39.758 268.659 40.0394L267.347 41.4036V34.0627Z" fill="#666666"/>
<path d="M261.041 43.0715C261.424 43.0715 261.734 43.3942 261.734 43.7922V45.7381C261.734 45.891 261.792 46.0376 261.896 46.1458C262 46.2539 262.141 46.3146 262.288 46.3146H271.02C271.167 46.3146 271.308 46.2539 271.412 46.1458C271.516 46.0376 271.574 45.891 271.574 45.7381V43.7922C271.574 43.3942 271.885 43.0715 272.267 43.0715C272.65 43.0715 272.96 43.3942 272.96 43.7922V45.7381C272.96 46.2733 272.756 46.7865 272.392 47.165C272.028 47.5434 271.534 47.756 271.02 47.756H262.288C261.774 47.756 261.28 47.5434 260.916 47.165C260.552 46.7865 260.348 46.2733 260.348 45.7381V43.7922C260.348 43.3942 260.658 43.0715 261.041 43.0715Z" fill="#666666"/>
<circle cx="266.656" cy="40.5485" r="16.6662" stroke="#EEF0F2" stroke-width="0.900875"/>
<circle cx="157.653" cy="161.265" r="73.8717" stroke="#F5F5F5" stroke-width="15.3149"/>
<g filter="url(#filter1_d_5_441)">
<path d="M157.653 87.3936C116.855 87.3936 83.7811 120.467 83.7811 161.265C83.7811 202.063 116.855 235.137 157.653 235.137C173.602 235.137 188.371 230.083 200.444 221.488" stroke="#DE2879" stroke-width="27.0262"/>
</g>
<path d="M170.265 131.536H26.1252C23.6375 131.536 21.6208 133.553 21.6208 136.041L21.6208 182.886C21.6208 185.374 23.6375 187.391 26.1252 187.391H87.8351L93.6908 193.246L99.5464 187.391H170.265C172.753 187.391 174.769 185.374 174.769 182.886V136.041C174.769 133.553 172.753 131.536 170.265 131.536Z" fill="#293134"/>
<text transform="translate(32.9997 141.999)" fill="white" xml:space="preserve" style="white-space: pre" font-family="Inter" font-size="12" font-weight="500" letter-spacing="-0.01em"><tspan x="0" y="12.3636">72.3% of the media for </tspan><tspan x="0" y="28.3636">#sunrise are photos.</tspan></text>
<defs>
<filter id="filter0_d_5_441" x="-48" y="-19.9922" width="405" height="386.982" filterUnits="userSpaceOnUse" color-interpolation-filters="sRGB">
<feFlood flood-opacity="0" result="BackgroundImageFix"/>
<feColorMatrix in="SourceAlpha" type="matrix" values="0 0 0 0 0 0 0 0 0 0 0 0 0 0 0 0 0 0 127 0" result="hardAlpha"/>
<feMorphology radius="12" operator="erode" in="SourceAlpha" result="effect1_dropShadow_5_441"/>
<feOffset dy="28"/>
<feGaussianBlur stdDeviation="30"/>
<feColorMatrix type="matrix" values="0 0 0 0 0 0 0 0 0 0 0 0 0 0 0 0 0 0 0.05 0"/>
<feBlend mode="normal" in2="BackgroundImageFix" result="effect1_dropShadow_5_441"/>
<feBlend mode="normal" in="SourceGraphic" in2="effect1_dropShadow_5_441" result="shape"/>
</filter>
<filter id="filter1_d_5_441" x="30.268" y="55.5014" width="218.013" height="254.77" filterUnits="userSpaceOnUse" color-interpolation-filters="sRGB">
<feFlood flood-opacity="0" result="BackgroundImageFix"/>
<feColorMatrix in="SourceAlpha" type="matrix" values="0 0 0 0 0 0 0 0 0 0 0 0 0 0 0 0 0 0 127 0" result="hardAlpha"/>
<feOffset dy="21.621"/>
<feGaussianBlur stdDeviation="20"/>
<feColorMatrix type="matrix" values="0 0 0 0 0 0 0 0 0 0 0 0 0 0 0 0 0 0 0.1 0"/>
<feBlend mode="normal" in2="BackgroundImageFix" result="effect1_dropShadow_5_441"/>
<feBlend mode="normal" in="SourceGraphic" in2="effect1_dropShadow_5_441" result="shape"/>
</filter>
<radialGradient id="paint0_radial_5_441" cx="0" cy="0" r="1" gradientUnits="userSpaceOnUse" gradientTransform="translate(24.9095 49.6445) scale(23.5214)">
<stop offset="0.09" stop-color="#FA8F21"/>
<stop offset="0.78" stop-color="#D82D7E"/>
</radialGradient>
<radialGradient id="paint1_radial_5_441" cx="0" cy="0" r="1" gradientUnits="userSpaceOnUse" gradientTransform="translate(33.4435 50.4517) scale(18.5381)">
<stop offset="0.64" stop-color="#8C3AAA" stop-opacity="0"/>
<stop offset="1" stop-color="#8C3AAA"/>
</radialGradient>
</defs>
</svg>
