<svg width="314" height="150" viewBox="0 0 314 208" fill="none" xmlns="http://www.w3.org/2000/svg">
<g id="Group 690">
<g id="Rectangle 716" filter="url(#filter0_d_5_474)">
<rect x="66" y="31" width="200" height="76" rx="8" fill="white"/>
</g>
<g id="Group 688">
<path id="Vector" d="M184 69C184 73.7738 182.103 78.3524 178.728 81.728C175.352 85.1035 170.774 87 166 87C161.226 87 156.648 85.1035 153.272 81.728C149.896 78.3524 148 73.7738 148 69C148 64.2261 149.896 59.6477 153.272 56.2721C156.648 52.8964 161.226 51 166 51C170.774 51 175.352 52.8964 178.728 56.2721C182.103 59.6477 184 64.2261 184 69Z" fill="url(#paint0_linear_5_474)"/>
<g id="Vector_2" filter="url(#filter1_d_5_474)">
<path d="M159.699 81.4897C159.699 82.6777 162.518 82.4887 165.999 82.4887C169.478 82.4887 172.299 82.6777 172.299 81.4897C172.299 80.0587 169.478 79.125 165.999 79.125C162.518 79.125 159.699 80.0587 159.699 81.4897Z" fill="#222222"/>
</g>
<path id="Vector_3" d="M159.699 81.4897C159.699 82.6777 162.518 82.4887 165.999 82.4887C169.478 82.4887 172.299 82.6777 172.299 81.4897C172.299 80.0587 169.478 79.125 165.999 79.125C162.518 79.125 159.699 80.0587 159.699 81.4897Z" fill="url(#paint1_linear_5_474)"/>
<path id="Vector_4" d="M156.098 73.1201C156.098 71.3404 157.308 69.9004 158.798 69.9004C160.29 69.9004 161.498 71.3404 161.498 73.1201C161.498 73.8604 161.289 74.5444 160.931 75.0867C160.764 75.3364 160.508 75.5133 160.215 75.5817C159.878 75.6627 159.376 75.7504 158.798 75.7504C158.22 75.7504 157.716 75.6627 157.38 75.5817C157.087 75.5139 156.832 75.3369 156.665 75.0867C156.288 74.5005 156.091 73.817 156.098 73.1201ZM170.498 73.1201C170.498 71.3404 171.706 69.9004 173.198 69.9004C174.687 69.9004 175.898 71.3404 175.898 73.1201C175.898 73.8604 175.686 74.5444 175.331 75.0867C175.164 75.3369 174.908 75.5139 174.615 75.5817C174.151 75.6928 173.675 75.7493 173.198 75.7504C172.62 75.7504 172.118 75.6627 171.78 75.5817C171.487 75.5133 171.231 75.3364 171.063 75.0867C170.688 74.4999 170.491 73.8165 170.498 73.1201Z" fill="url(#paint2_linear_5_474)"/>
<g id="Vector_5" filter="url(#filter2_i_5_474)">
<path d="M156.098 73.1201C156.098 71.3404 157.308 69.9004 158.798 69.9004C160.29 69.9004 161.498 71.3404 161.498 73.1201C161.498 73.8604 161.289 74.5444 160.931 75.0867C160.764 75.3364 160.508 75.5133 160.215 75.5817C159.878 75.6627 159.376 75.7504 158.798 75.7504C158.22 75.7504 157.716 75.6627 157.38 75.5817C157.087 75.5139 156.832 75.3369 156.665 75.0867C156.288 74.5005 156.091 73.817 156.098 73.1201ZM170.498 73.1201C170.498 71.3404 171.706 69.9004 173.198 69.9004C174.687 69.9004 175.898 71.3404 175.898 73.1201C175.898 73.8604 175.686 74.5444 175.331 75.0867C175.164 75.3369 174.908 75.5139 174.615 75.5817C174.151 75.6928 173.675 75.7493 173.198 75.7504C172.62 75.7504 172.118 75.6627 171.78 75.5817C171.487 75.5133 171.231 75.3364 171.063 75.0867C170.688 74.4999 170.491 73.8165 170.498 73.1201Z" fill="#222222"/>
</g>
<path id="Vector_6" d="M159.181 71.9977C159.192 72.0502 159.197 72.1037 159.197 72.1574C159.197 72.6097 158.801 72.9809 158.31 72.9809C157.822 72.9809 157.426 72.6097 157.426 72.1574C157.426 71.9707 157.493 71.7974 157.606 71.6602C158.11 71.7794 158.639 71.8942 159.181 71.9977ZM172.514 72.9809C172.04 72.9809 171.653 72.6367 171.63 72.1979C172.213 72.1124 172.791 72.0067 173.354 71.8919C173.385 71.9777 173.4 72.0684 173.399 72.1597C173.399 72.6097 173.005 72.9809 172.514 72.9809Z" fill="#4F4F67"/>
<g id="Vector_7" filter="url(#filter3_d_5_474)">
<path d="M168.249 68.1C168.249 67.0965 168.616 66.75 169.25 66.75C169.88 66.75 170.182 67.371 170.389 69.1485C172.927 69.1485 177.224 67.947 177.638 67.947C178.039 67.947 178.262 68.1382 178.352 68.5477C178.43 68.9032 178.3 69.2408 177.854 69.4478C176.457 70.0935 172.358 71.5515 168.89 71.5515C168.512 71.5515 168.249 71.358 168.249 70.8743V68.1ZM161.609 69.1485C161.816 67.371 162.118 66.75 162.748 66.75C163.382 66.75 163.749 67.0965 163.749 68.1V70.8743C163.749 71.358 163.486 71.5515 163.108 71.5515C159.641 71.5515 155.541 70.0935 154.144 69.4478C153.698 69.2408 153.568 68.9032 153.647 68.5477C153.739 68.1382 153.962 67.947 154.36 67.947C154.774 67.947 159.071 69.1485 161.609 69.1485Z" fill="#222222"/>
</g>
<path id="Vector_8" d="M168.249 68.1C168.249 67.0965 168.616 66.75 169.25 66.75C169.88 66.75 170.182 67.371 170.389 69.1485C172.927 69.1485 177.224 67.947 177.638 67.947C178.039 67.947 178.262 68.1382 178.352 68.5477C178.43 68.9032 178.3 69.2408 177.854 69.4478C176.457 70.0935 172.358 71.5515 168.89 71.5515C168.512 71.5515 168.249 71.358 168.249 70.8743V68.1ZM161.609 69.1485C161.816 67.371 162.118 66.75 162.748 66.75C163.382 66.75 163.749 67.0965 163.749 68.1V70.8743C163.749 71.358 163.486 71.5515 163.108 71.5515C159.641 71.5515 155.541 70.0935 154.144 69.4478C153.698 69.2408 153.568 68.9032 153.647 68.5477C153.739 68.1382 153.962 67.947 154.36 67.947C154.774 67.947 159.071 69.1485 161.609 69.1485Z" fill="url(#paint3_linear_5_474)"/>
</g>
<g id="Group">
<path id="Vector_9" d="M126 69C126 73.7738 124.103 78.3524 120.728 81.728C117.352 85.1035 112.774 87 108 87C103.226 87 98.6477 85.1035 95.2721 81.728C91.8964 78.3524 90 73.7738 90 69C90 64.2261 91.8964 59.6477 95.2721 56.2721C98.6477 52.8964 103.226 51 108 51C112.774 51 117.352 52.8964 120.728 56.2721C124.103 59.6477 126 64.2261 126 69Z" fill="url(#paint4_linear_5_474)"/>
<path id="Vector_10" d="M102.697 75.498C102.341 79.6492 104.33 82.5 108 82.5C111.668 82.5 113.659 79.6492 113.303 75.498C112.95 71.3445 110.795 69 108 69C105.206 69 103.05 71.3445 102.697 75.498Z" fill="url(#paint5_linear_5_474)"/>
<path id="Vector_11" d="M97.875 63.375C97.875 61.512 99.1328 60 100.688 60C102.242 60 103.5 61.512 103.5 63.375C103.5 65.2402 102.242 66.75 100.688 66.75C99.1328 66.75 97.875 65.2402 97.875 63.375ZM112.5 63.375C112.5 61.512 113.76 60 115.312 60C116.867 60 118.125 61.512 118.125 63.375C118.125 65.2402 116.867 66.75 115.312 66.75C113.76 66.75 112.5 65.2402 112.5 63.375Z" fill="url(#paint6_linear_5_474)"/>
<g id="Vector_12" filter="url(#filter4_i_5_474)">
<path d="M97.875 63.375C97.875 61.512 99.1328 60 100.688 60C102.242 60 103.5 61.512 103.5 63.375C103.5 65.2402 102.242 66.75 100.688 66.75C99.1328 66.75 97.875 65.2402 97.875 63.375ZM112.5 63.375C112.5 61.512 113.76 60 115.312 60C116.867 60 118.125 61.512 118.125 63.375C118.125 65.2402 116.867 66.75 115.312 66.75C113.76 66.75 112.5 65.2402 112.5 63.375Z" fill="#222222"/>
</g>
<path id="Vector_13" d="M100.085 61.2769C100.503 61.3714 100.737 61.8439 100.607 62.3321C100.478 62.8226 100.035 63.1421 99.6167 63.0476C99.1982 62.9531 98.9642 62.4806 99.0947 61.9901C99.223 61.5041 99.6662 61.1801 100.085 61.2769ZM115.065 61.4186C115.529 61.5244 115.79 62.0486 115.646 62.5886C115.502 63.1354 115.011 63.4886 114.546 63.3851C114.082 63.2816 113.821 62.7551 113.965 62.2129C114.107 61.6684 114.6 61.3129 115.068 61.4186H115.065Z" fill="#4E506A"/>
<g id="Vector_14" filter="url(#filter5_d_5_474)">
<path d="M114.902 54.8154C115.019 54.8041 115.136 54.7996 115.255 54.7996C116.351 54.7996 117.482 55.2586 118.342 56.0641C118.497 56.2119 118.589 56.4139 118.598 56.6279C118.607 56.8419 118.533 57.0511 118.391 57.2116C118.323 57.2903 118.239 57.3544 118.145 57.4C118.051 57.4455 117.949 57.4716 117.845 57.4766C117.741 57.4817 117.636 57.4656 117.539 57.4293C117.441 57.3931 117.351 57.3374 117.275 57.2656C116.657 56.6829 115.799 56.3656 115.043 56.4354C114.781 56.455 114.526 56.5318 114.297 56.6605C114.068 56.7892 113.869 56.9665 113.716 57.1801C113.654 57.2638 113.576 57.3343 113.487 57.3875C113.398 57.4407 113.299 57.4754 113.196 57.4897C113.093 57.5039 112.988 57.4974 112.888 57.4705C112.787 57.4436 112.693 57.3969 112.611 57.3331C112.443 57.1996 112.333 57.006 112.305 56.7932C112.277 56.5804 112.333 56.365 112.46 56.1924C112.744 55.8003 113.109 55.4742 113.53 55.2365C113.952 54.9988 114.419 54.8551 114.902 54.8154ZM97.6553 56.0641C98.4895 55.2707 99.5912 54.8195 100.742 54.7996C101.286 54.7878 101.825 54.9084 102.311 55.1511C102.798 55.3937 103.219 55.7511 103.537 56.1924C103.664 56.3649 103.72 56.58 103.692 56.7926C103.664 57.0053 103.556 57.1989 103.388 57.3331C103.306 57.397 103.212 57.4437 103.111 57.4707C103.011 57.4976 102.906 57.5041 102.803 57.4898C102.699 57.4756 102.6 57.4408 102.511 57.3876C102.421 57.3344 102.343 57.2639 102.281 57.1801C102.128 56.9666 101.929 56.7894 101.7 56.6607C101.471 56.532 101.216 56.4551 100.954 56.4354C100.2 56.3656 99.3405 56.6829 98.7218 57.2656C98.646 57.3374 98.5564 57.3931 98.4586 57.4293C98.3607 57.4656 98.2565 57.4817 98.1523 57.4766C98.048 57.4716 97.9458 57.4455 97.8519 57.4C97.758 57.3544 97.6743 57.2903 97.6058 57.2116C97.464 57.0511 97.39 56.8419 97.3992 56.6279C97.4085 56.4139 97.5002 56.2119 97.6553 56.0641Z" fill="#222222"/>
</g>
<path id="Vector_15" d="M114.902 54.8154C115.019 54.8041 115.136 54.7996 115.255 54.7996C116.351 54.7996 117.482 55.2586 118.342 56.0641C118.497 56.2119 118.589 56.4139 118.598 56.6279C118.607 56.8419 118.533 57.0511 118.391 57.2116C118.323 57.2903 118.239 57.3544 118.145 57.4C118.051 57.4455 117.949 57.4716 117.845 57.4766C117.741 57.4817 117.636 57.4656 117.539 57.4293C117.441 57.3931 117.351 57.3374 117.275 57.2656C116.657 56.6829 115.799 56.3656 115.043 56.4354C114.781 56.455 114.526 56.5318 114.297 56.6605C114.068 56.7892 113.869 56.9665 113.716 57.1801C113.654 57.2638 113.576 57.3343 113.487 57.3875C113.398 57.4407 113.299 57.4754 113.196 57.4897C113.093 57.5039 112.988 57.4974 112.888 57.4705C112.787 57.4436 112.693 57.3969 112.611 57.3331C112.443 57.1996 112.333 57.006 112.305 56.7932C112.277 56.5804 112.333 56.365 112.46 56.1924C112.744 55.8003 113.109 55.4742 113.53 55.2365C113.952 54.9988 114.419 54.8551 114.902 54.8154ZM97.6553 56.0641C98.4895 55.2707 99.5912 54.8195 100.742 54.7996C101.286 54.7878 101.825 54.9084 102.311 55.1511C102.798 55.3937 103.219 55.7511 103.537 56.1924C103.664 56.3649 103.72 56.58 103.692 56.7926C103.664 57.0053 103.556 57.1989 103.388 57.3331C103.306 57.397 103.212 57.4437 103.111 57.4707C103.011 57.4976 102.906 57.5041 102.803 57.4898C102.699 57.4756 102.6 57.4408 102.511 57.3876C102.421 57.3344 102.343 57.2639 102.281 57.1801C102.128 56.9666 101.929 56.7894 101.7 56.6607C101.471 56.532 101.216 56.4551 100.954 56.4354C100.2 56.3656 99.3405 56.6829 98.7218 57.2656C98.646 57.3374 98.5564 57.3931 98.4586 57.4293C98.3607 57.4656 98.2565 57.4817 98.1523 57.4766C98.048 57.4716 97.9458 57.4455 97.8519 57.4C97.758 57.3544 97.6743 57.2903 97.6058 57.2116C97.464 57.0511 97.39 56.8419 97.3992 56.6279C97.4085 56.4139 97.5002 56.2119 97.6553 56.0641Z" fill="url(#paint7_linear_5_474)"/>
</g>
<g id="Group 689">
<path id="Vector_16" d="M224 51C219.226 51 214.648 52.8964 211.272 56.2721C207.896 59.6477 206 64.2261 206 69C206 73.7738 207.896 78.3524 211.272 81.728C214.648 85.1035 219.226 87 224 87C228.774 87 233.352 85.1035 236.728 81.728C240.103 78.3524 242 73.7738 242 69C242 64.2261 240.103 59.6477 236.728 56.2721C233.352 52.8964 228.774 51 224 51Z" fill="url(#paint8_linear_5_474)"/>
<path id="Vector_17" d="M229.566 60C224.621 60 224.002 64.104 224.002 64.104C224.002 64.104 223.386 60 218.44 60C213.684 60 212.298 64.9995 212.878 67.6725C214.408 74.7375 224.002 79.6875 224.002 79.6875C224.002 79.6875 233.598 74.7375 235.128 67.6725C235.707 64.9995 234.318 60 229.566 60Z" fill="white"/>
</g>
</g>
<defs>
<filter id="filter0_d_5_474" x="0" y="0" width="332" height="208" filterUnits="userSpaceOnUse" color-interpolation-filters="sRGB">
<feFlood flood-opacity="0" result="BackgroundImageFix"/>
<feColorMatrix in="SourceAlpha" type="matrix" values="0 0 0 0 0 0 0 0 0 0 0 0 0 0 0 0 0 0 127 0" result="hardAlpha"/>
<feMorphology radius="14" operator="erode" in="SourceAlpha" result="effect1_dropShadow_5_474"/>
<feOffset dy="35"/>
<feGaussianBlur stdDeviation="40"/>
<feColorMatrix type="matrix" values="0 0 0 0 0 0 0 0 0 0 0 0 0 0 0 0 0 0 0.08 0"/>
<feBlend mode="normal" in2="BackgroundImageFix" result="effect1_dropShadow_5_474"/>
<feBlend mode="normal" in="SourceGraphic" in2="effect1_dropShadow_5_474" result="shape"/>
</filter>
<filter id="filter1_d_5_474" x="158.699" y="79.125" width="14.6" height="5.37476" filterUnits="userSpaceOnUse" color-interpolation-filters="sRGB">
<feFlood flood-opacity="0" result="BackgroundImageFix"/>
<feColorMatrix in="SourceAlpha" type="matrix" values="0 0 0 0 0 0 0 0 0 0 0 0 0 0 0 0 0 0 127 0" result="hardAlpha"/>
<feOffset dy="1"/>
<feGaussianBlur stdDeviation="0.5"/>
<feColorMatrix type="matrix" values="0 0 0 0 1 0 0 0 0 0.509681 0 0 0 0 0 0 0 0 0.371207 0"/>
<feBlend mode="normal" in2="BackgroundImageFix" result="effect1_dropShadow_5_474"/>
<feBlend mode="normal" in="SourceGraphic" in2="effect1_dropShadow_5_474" result="shape"/>
</filter>
<filter id="filter2_i_5_474" x="156.098" y="69.9004" width="19.8002" height="5.84998" filterUnits="userSpaceOnUse" color-interpolation-filters="sRGB">
<feFlood flood-opacity="0" result="BackgroundImageFix"/>
<feBlend mode="normal" in="SourceGraphic" in2="BackgroundImageFix" result="shape"/>
<feColorMatrix in="SourceAlpha" type="matrix" values="0 0 0 0 0 0 0 0 0 0 0 0 0 0 0 0 0 0 127 0" result="hardAlpha"/>
<feOffset/>
<feGaussianBlur stdDeviation="0.5"/>
<feComposite in2="hardAlpha" operator="arithmetic" k2="-1" k3="1"/>
<feColorMatrix type="matrix" values="0 0 0 0 0.0387428 0 0 0 0 0.0406183 0 0 0 0 0.0875053 0 0 0 1 0"/>
<feBlend mode="normal" in2="shape" result="effect1_innerShadow_5_474"/>
</filter>
<filter id="filter3_d_5_474" x="153.525" y="66.75" width="24.9482" height="5.50151" filterUnits="userSpaceOnUse" color-interpolation-filters="sRGB">
<feFlood flood-opacity="0" result="BackgroundImageFix"/>
<feColorMatrix in="SourceAlpha" type="matrix" values="0 0 0 0 0 0 0 0 0 0 0 0 0 0 0 0 0 0 127 0" result="hardAlpha"/>
<feOffset dy="0.6"/>
<feGaussianBlur stdDeviation="0.05"/>
<feColorMatrix type="matrix" values="0 0 0 0 0.565875 0 0 0 0 0.151272 0 0 0 0 0 0 0 0 0.15024 0"/>
<feBlend mode="normal" in2="BackgroundImageFix" result="effect1_dropShadow_5_474"/>
<feBlend mode="normal" in="SourceGraphic" in2="effect1_dropShadow_5_474" result="shape"/>
</filter>
<filter id="filter4_i_5_474" x="97.875" y="60" width="20.25" height="6.75" filterUnits="userSpaceOnUse" color-interpolation-filters="sRGB">
<feFlood flood-opacity="0" result="BackgroundImageFix"/>
<feBlend mode="normal" in="SourceGraphic" in2="BackgroundImageFix" result="shape"/>
<feColorMatrix in="SourceAlpha" type="matrix" values="0 0 0 0 0 0 0 0 0 0 0 0 0 0 0 0 0 0 127 0" result="hardAlpha"/>
<feOffset/>
<feGaussianBlur stdDeviation="0.5"/>
<feComposite in2="hardAlpha" operator="arithmetic" k2="-1" k3="1"/>
<feColorMatrix type="matrix" values="0 0 0 0 0.0980392 0 0 0 0 0.101961 0 0 0 0 0.2 0 0 0 0.819684 0"/>
<feBlend mode="normal" in2="shape" result="effect1_innerShadow_5_474"/>
</filter>
<filter id="filter5_d_5_474" x="94.3984" y="52.7988" width="27.2001" height="8.69836" filterUnits="userSpaceOnUse" color-interpolation-filters="sRGB">
<feFlood flood-opacity="0" result="BackgroundImageFix"/>
<feColorMatrix in="SourceAlpha" type="matrix" values="0 0 0 0 0 0 0 0 0 0 0 0 0 0 0 0 0 0 127 0" result="hardAlpha"/>
<feOffset dy="1"/>
<feGaussianBlur stdDeviation="1.5"/>
<feColorMatrix type="matrix" values="0 0 0 0 0.803922 0 0 0 0 0.388235 0 0 0 0 0.00392157 0 0 0 0.145679 0"/>
<feBlend mode="normal" in2="BackgroundImageFix" result="effect1_dropShadow_5_474"/>
<feBlend mode="normal" in="SourceGraphic" in2="effect1_dropShadow_5_474" result="shape"/>
</filter>
<linearGradient id="paint0_linear_5_474" x1="166" y1="51" x2="166" y2="75.1897" gradientUnits="userSpaceOnUse">
<stop stop-color="#E04300"/>
<stop offset="1" stop-color="#FFA320"/>
</linearGradient>
<linearGradient id="paint1_linear_5_474" x1="165.999" y1="79.5817" x2="165.999" y2="82.5" gradientUnits="userSpaceOnUse">
<stop stop-color="#3D0D00"/>
<stop offset="1" stop-color="#661C04"/>
</linearGradient>
<linearGradient id="paint2_linear_5_474" x1="165.999" y1="69.8995" x2="165.999" y2="75.7495" gradientUnits="userSpaceOnUse">
<stop stop-color="#191A33"/>
<stop offset="0.872" stop-color="#3B426A"/>
</linearGradient>
<linearGradient id="paint3_linear_5_474" x1="174.134" y1="71.9992" x2="174.134" y2="66.75" gradientUnits="userSpaceOnUse">
<stop stop-color="#9A2F00"/>
<stop offset="1" stop-color="#D44800"/>
</linearGradient>
<linearGradient id="paint4_linear_5_474" x1="108" y1="54.69" x2="108" y2="87" gradientUnits="userSpaceOnUse">
<stop stop-color="#FEEA70"/>
<stop offset="1" stop-color="#F69B30"/>
</linearGradient>
<linearGradient id="paint5_linear_5_474" x1="108" y1="69" x2="108" y2="82.5" gradientUnits="userSpaceOnUse">
<stop stop-color="#472315"/>
<stop offset="1" stop-color="#8B3A0E"/>
</linearGradient>
<linearGradient id="paint6_linear_5_474" x1="108" y1="60" x2="108" y2="66.75" gradientUnits="userSpaceOnUse">
<stop stop-color="#191A33"/>
<stop offset="0.872" stop-color="#3B426A"/>
</linearGradient>
<linearGradient id="paint7_linear_5_474" x1="107.998" y1="54.7977" x2="107.998" y2="57.4977" gradientUnits="userSpaceOnUse">
<stop stop-color="#E78E0D"/>
<stop offset="1" stop-color="#CB6000"/>
</linearGradient>
<linearGradient id="paint8_linear_5_474" x1="224" y1="51" x2="224" y2="87" gradientUnits="userSpaceOnUse">
<stop stop-color="#FF6680"/>
<stop offset="1" stop-color="#E61739"/>
</linearGradient>
</defs>
</svg>
