<svg width="138" height="26" viewBox="0 0 138 26" fill="none" xmlns="http://www.w3.org/2000/svg">
<path d="M120.642 0C120.145 0 119.743 0.402412 119.743 0.898618V7.20112H136.391L128.809 0.000581339L120.642 0Z" fill="#B3B7BC"/>
<path d="M137.001 9.10703C137.001 8.60966 136.602 8.20898 136.102 8.20898H129.801V24.8578L136.998 17.2728L137.001 9.10703Z" fill="#B3B7BC"/>
<path d="M127.891 25.4616C128.387 25.4616 128.789 25.0586 128.789 24.5613V18.2611H112.14L119.723 25.4605L127.891 25.4616Z" fill="#B3B7BC"/>
<path d="M111.532 16.3545C111.532 16.8513 111.934 17.256 112.432 17.256H118.732V0.606079L111.533 8.18875L111.532 16.3545Z" fill="#B3B7BC"/>
<path d="M35.2227 3.03911V10.7277H24.5111V3.03911L20.6097 3.03564V22.4219H24.5111V14.0935H35.2227V22.4219H39.1304V3.03911H35.2227Z" fill="#B3B7BC"/>
<path d="M87.125 3.03918V22.4174H104.241L102.073 19.0059H91.0374V14.0936H101.724V10.8077H91.0374V6.37079H102.055L104.178 3.03918H87.125Z" fill="#B3B7BC"/>
<path d="M6.10796 3.03455C2.04971 3.03455 0 5.5017 0 9.09155V16.328C0 20.4823 2.64143 22.422 6.08769 22.422L18.3279 22.4209L16.0588 18.8773H6.84387C4.88624 18.8773 4.03337 18.1698 4.03337 15.9788V9.41347C4.03337 7.29546 4.75134 6.46922 6.89598 6.46922H16.1549L18.3337 3.03455H6.10796Z" fill="#B3B7BC"/>
<path d="M70.0017 3.03014C67.6579 3.03014 65.2556 4.43887 65.2556 8.0623V8.99333C65.2556 12.7708 67.567 14.2119 69.8795 14.2218H77.9966C78.8397 14.2218 79.5246 14.3619 79.5246 15.7868L79.5235 17.4329C79.502 18.7131 78.8634 19.0061 77.9677 19.0061H67.2891L65.1016 22.4176H78.219C81.3821 22.4176 83.5296 20.8439 83.5296 17.2089V15.8731C83.5296 12.3585 81.5344 10.6979 78.4407 10.6979H70.6901C69.8309 10.6979 69.2322 10.4634 69.2322 9.19078V7.85037C69.2322 6.76648 69.6427 6.37101 70.6438 6.37101L80.8135 6.36696L82.939 3.02551L70.0017 3.03014Z" fill="#B3B7BC"/>
<path d="M50.4651 3.03967L41.2733 22.4214H45.6176L47.4079 18.4187H57.3964L59.1808 22.4214H63.5442L54.3311 3.03967H50.4651ZM52.3926 7.06377L55.9245 15.1195H48.8832L52.3926 7.06377Z" fill="#B3B7BC"/>
</svg>
