<svg width="133" height="33" viewBox="0 0 133 33" fill="none" xmlns="http://www.w3.org/2000/svg">
<path d="M0 6.74223C0 6.74223 3.3042 20.3071 3.83153 22.5089C4.44703 25.0788 5.55605 26.0247 8.75354 25.3868L10.8168 16.9766C11.3397 14.8876 11.6904 13.3983 12.0266 11.2732H12.0857C12.3219 13.4191 12.6582 14.8938 13.0885 16.9839C13.0885 16.9839 13.9284 20.8019 14.3585 22.8073C14.7898 24.8119 15.9899 26.0753 19.1218 25.3875L24.038 6.74365H20.0688L18.3904 14.8043C17.9392 17.1506 17.5297 18.9839 17.214 21.1304H17.158C16.8711 19.0053 16.5062 17.2446 16.0474 14.9586L14.2999 6.74365H10.1643L8.29505 14.7516C7.76547 17.185 7.27015 19.15 6.95517 21.2237H6.89813C6.57556 19.2708 6.14593 16.8012 5.68069 14.4456C5.68069 14.4456 4.57011 8.71795 4.18045 6.74365L0.000386466 6.74419L0 6.74223ZM37.838 6.74223V25.3861H41.617V21.4271V6.74133H37.838V6.74223ZM91.0617 6.74223V20.4961C91.0617 22.3924 91.4179 23.721 92.18 24.5327C92.8458 25.2425 93.9425 25.7022 95.2566 25.7022C96.3739 25.7022 97.4732 25.4899 97.9913 25.2966L97.9426 22.3379C97.5571 22.4329 97.1136 22.509 96.507 22.509C95.2197 22.509 94.788 21.683 94.788 19.9803V14.7181H98.0792V11.151H94.788V6.74228H91.0615L91.0617 6.74223ZM29.3928 11.0643C27.0442 11.0643 25.18 11.7249 24.1637 12.3133L24.9074 14.8646C25.8375 14.2772 27.3183 13.7909 28.7204 13.7909C31.0419 13.7849 31.4214 15.106 31.4214 15.9532V16.1536C26.363 16.146 23.1678 17.8997 23.1678 21.4743C23.1678 23.6568 24.7943 25.7021 27.6227 25.7021C29.3637 25.7021 30.8198 25.0065 31.6925 23.8918H31.7781C31.7781 23.8918 32.3559 26.3125 35.5396 25.3868C35.3724 24.3793 35.318 23.3051 35.318 22.0114V17.0307C35.318 13.8563 33.9652 11.0643 29.3928 11.0643L29.3928 11.0643ZM51.9984 11.0643C49.6336 11.0643 48.5709 12.2649 47.9266 13.2835H47.8706V11.3804H44.2642V25.387H48.0633V17.1727C48.0633 16.7876 48.1072 16.3804 48.2414 16.0262C48.5561 15.1992 49.3242 14.2317 50.5504 14.2317C52.0833 14.2317 52.8006 15.5302 52.8006 17.404V25.3868H56.5956V17.0732C56.5956 16.7056 56.6459 16.2628 56.7539 15.9378C57.0659 14.9971 57.8939 14.2316 59.0337 14.2316C60.5878 14.2316 61.3336 15.5074 61.3336 17.7123V25.3869H65.1313V17.1375C65.1313 12.7869 62.9263 11.0643 60.4373 11.0643C59.3349 11.0643 58.4649 11.3413 57.6782 11.8251C57.017 12.2316 56.4251 12.8091 55.9077 13.5696H55.8517C55.2497 12.0601 53.8374 11.0643 51.9977 11.0643L51.9984 11.0643ZM72.8604 11.0643C70.5124 11.0643 68.6485 11.7249 67.6314 12.3133L68.3761 14.8646C69.3052 14.2772 70.787 13.7909 72.1884 13.7909C74.5083 13.7849 74.8887 15.106 74.8887 15.9532V16.1536C69.8309 16.146 66.6354 17.8997 66.6354 21.4743C66.6354 23.6568 68.2628 25.7021 71.0926 25.7021C72.8322 25.7021 74.2888 25.0065 75.1599 23.8918H75.2458C75.2458 23.8918 75.8236 26.3125 79.0077 25.3868C78.8402 24.3793 78.7865 23.3051 78.7865 22.0114V17.0307C78.7865 13.8563 77.4333 11.0643 72.8604 11.0643L72.8604 11.0643ZM88.6371 11.0643C87.1824 11.0643 85.5272 12.0051 84.8325 14.0219H84.7264V11.3803H81.3064V25.3868H85.2051V18.2146C85.2051 17.8276 85.2285 17.4903 85.2896 17.1809C85.578 15.6785 86.725 14.7181 88.3712 14.7181C88.8231 14.7181 89.1466 14.7671 89.4965 14.8178V11.1509C89.2031 11.0915 89.0024 11.0641 88.6373 11.0641L88.6371 11.0643ZM31.5435 18.6356V20.383C31.5435 20.6414 31.521 20.9081 31.4495 21.1413C31.1571 22.1117 30.1536 22.9318 28.8992 22.9318C27.8534 22.9318 27.0226 22.3372 27.0226 21.0792C27.0226 19.155 29.1368 18.6231 31.5436 18.6356H31.5435ZM75.0111 18.6356V20.383C75.0111 20.6414 74.9882 20.9081 74.9172 21.1413C74.6247 22.1117 73.6216 22.9318 72.3672 22.9318C71.3212 22.9318 70.4903 22.3372 70.4903 21.0792C70.4903 19.155 72.6044 18.6231 75.0112 18.6356H75.0111Z" fill="#B3B7BC"/>
<path d="M118.51 0C117.29 0 116.321 0.682568 116.321 1.51352L117.062 9.91884C117.143 10.4252 117.763 10.8159 118.511 10.8159C119.261 10.8149 119.878 10.4246 119.962 9.91884L120.706 1.51352C120.706 0.682639 119.734 7.13722e-05 118.512 7.13722e-05L118.51 0ZM106.436 6.74235C105.803 6.75741 105.083 7.23784 104.626 8.03283C104.014 9.09144 104.122 10.2745 104.838 10.6895L112.473 14.2518C112.95 14.4296 113.598 14.0902 113.973 13.4423C113.973 13.4422 113.973 13.442 113.973 13.4419C114.35 12.7908 114.321 12.0587 113.924 11.7339L107.028 6.88813C106.849 6.78421 106.648 6.73744 106.437 6.74246L106.436 6.74235ZM130.585 6.74235C130.373 6.73733 130.172 6.7841 129.994 6.88802L123.097 11.7338C122.702 12.0586 122.673 12.7907 123.048 13.4418L123.048 13.4422C123.425 14.0901 124.071 14.4295 124.548 14.2517L132.186 10.6896C132.905 10.2745 133.008 9.09157 132.4 8.03291C131.941 7.23789 131.22 6.75749 130.587 6.74243L130.585 6.74235ZM112.759 17.832C112.66 17.8306 112.564 17.8459 112.474 17.8797L104.839 21.4378C104.123 21.8547 104.015 23.0381 104.627 24.0979C105.237 25.1544 106.313 25.6567 107.029 25.2423L113.925 20.4003C114.322 20.0716 114.351 19.3396 113.974 18.6891L113.978 18.6906C113.673 18.1607 113.187 17.8377 112.759 17.8319L112.759 17.832ZM124.265 17.832C123.838 17.8378 123.353 18.1608 123.047 18.6907L123.05 18.6893C122.675 19.3397 122.704 20.0717 123.098 20.4004L129.995 25.2424C130.71 25.6568 131.787 25.1545 132.4 24.098C133.008 23.0382 132.905 21.8547 132.186 21.4379L124.549 17.8798C124.46 17.846 124.364 17.8307 124.265 17.8321L124.265 17.832ZM118.509 21.3155C117.762 21.3164 117.144 21.7053 117.063 22.2104L116.322 30.6154C116.322 31.4477 117.291 32.1289 118.511 32.1289C119.734 32.1289 120.705 31.4477 120.705 30.6154L119.963 22.2104C119.879 21.7053 119.262 21.3164 118.512 21.3155H118.509H118.509Z" fill="#B3B7BC"/>
</svg>
