<svg width="309" height="270" viewBox="0 0 306 387" fill="none" xmlns="http://www.w3.org/2000/svg">
<g filter="url(#filter0_d_5_441)">
<rect x="48" y="20.0078" width="309" height="290.983" rx="8" fill="white"/>
</g>
<path d="M97.7592 55.3582H99.6236L102.865 63.273H102.984L106.226 55.3582H108.09V65.54H106.629V58.1721H106.534L103.531 65.5251H102.318L99.3153 58.1672H99.2209V65.54H97.7592V55.3582ZM113.755 65.6942C113.006 65.6942 112.36 65.5318 111.816 65.2069C111.273 64.8821 110.854 64.4264 110.559 63.8398C110.267 63.2498 110.121 62.5604 110.121 61.7716C110.121 60.9894 110.267 60.3 110.559 59.7034C110.854 59.1068 111.265 58.6411 111.792 58.3064C112.322 57.9716 112.942 57.8042 113.651 57.8042C114.228 57.8042 114.773 57.9335 115.287 58.192C115.804 58.4472 116.223 58.8566 116.544 59.42C116.869 59.9801 117.032 60.7209 117.032 61.6423V62.1693H111.603C111.623 62.9051 111.83 63.4719 112.224 63.8696C112.618 64.2673 113.134 64.4662 113.77 64.4662C114.194 64.4662 114.561 64.375 114.869 64.1927C115.177 64.0104 115.398 63.7387 115.53 63.3774L116.937 63.6309C116.768 64.2507 116.404 64.7496 115.843 65.1274C115.283 65.5052 114.587 65.6942 113.755 65.6942ZM111.608 61.0557H115.575C115.572 60.4723 115.396 59.9901 115.048 59.6089C114.7 59.2245 114.238 59.0322 113.661 59.0322C113.26 59.0322 112.908 59.1267 112.607 59.3156C112.309 59.5012 112.072 59.7481 111.896 60.0564C111.724 60.3613 111.627 60.6944 111.608 61.0557ZM121.54 65.6892C120.923 65.6892 120.375 65.5318 119.894 65.2169C119.413 64.902 119.036 64.4496 118.76 63.8596C118.485 63.2664 118.348 62.5587 118.348 61.7368C118.348 60.9115 118.485 60.2055 118.76 59.6189C119.039 59.0322 119.42 58.5831 119.904 58.2716C120.388 57.96 120.936 57.8042 121.55 57.8042C122.023 57.8042 122.405 57.8838 122.693 58.0429C122.985 58.1987 123.21 58.3809 123.369 58.5898C123.532 58.7986 123.657 58.9825 123.747 59.1416H123.836V55.3582H125.323V65.54H123.871V64.3518H123.747C123.657 64.5142 123.528 64.6998 123.359 64.9086C123.193 65.1175 122.965 65.2997 122.673 65.4555C122.381 65.6113 122.004 65.6892 121.54 65.6892ZM121.868 64.4214C122.511 64.4214 123.003 64.1729 123.344 63.6757C123.689 63.1752 123.861 62.5239 123.861 61.7219C123.861 60.9231 123.691 60.2818 123.349 59.7979C123.011 59.3106 122.517 59.067 121.868 59.067C121.42 59.067 121.047 59.183 120.749 59.415C120.451 59.647 120.225 59.9636 120.073 60.3646C119.924 60.7623 119.849 61.2148 119.849 61.7219C119.849 62.2323 119.925 62.6913 120.078 63.099C120.23 63.5067 120.456 63.8298 120.754 64.0684C121.056 64.3038 121.427 64.4214 121.868 64.4214ZM127.445 65.54V57.9037H128.931V65.54H127.445ZM128.195 56.7254C127.937 56.7254 127.715 56.6392 127.529 56.4669C127.347 56.2912 127.256 56.0824 127.256 55.8405C127.256 55.5952 127.347 55.3864 127.529 55.214C127.715 55.0384 127.937 54.9506 128.195 54.9506C128.451 54.9506 128.671 55.0384 128.857 55.214C129.042 55.3864 129.135 55.5952 129.135 55.8405C129.135 56.0824 129.042 56.2912 128.857 56.4669C128.671 56.6392 128.451 56.7254 128.195 56.7254ZM133.153 65.7091C132.669 65.7091 132.232 65.6196 131.841 65.4406C131.453 65.2616 131.145 64.9998 130.916 64.6551C130.687 64.3071 130.573 63.8828 130.573 63.3824C130.573 62.9482 130.656 62.5919 130.822 62.3135C130.991 62.0351 131.214 61.8147 131.493 61.6523C131.774 61.4898 132.089 61.3689 132.437 61.2893C132.785 61.2065 133.14 61.1435 133.501 61.1004C133.959 61.0474 134.328 61.0043 134.61 60.9711C134.895 60.9347 135.102 60.8767 135.231 60.7971C135.364 60.7176 135.43 60.5883 135.43 60.4094V60.3746C135.43 59.9404 135.308 59.604 135.062 59.3653C134.82 59.1267 134.459 59.0074 133.979 59.0074C133.478 59.0074 133.084 59.1167 132.795 59.3355C132.51 59.5542 132.313 59.7995 132.204 60.0713L130.807 59.7531C131.055 59.0571 131.47 58.5583 132.05 58.2567C132.633 57.955 133.269 57.8042 133.959 57.8042C134.264 57.8042 134.587 57.8407 134.928 57.9136C135.269 57.9832 135.591 58.1141 135.893 58.3064C136.198 58.4953 136.444 58.7638 136.633 59.1118C136.826 59.4598 136.922 59.9122 136.922 60.469V65.54H135.47V64.496H135.41C135.268 64.781 135.014 65.0545 134.65 65.3163C134.285 65.5782 133.786 65.7091 133.153 65.7091ZM133.476 64.5159C133.891 64.5159 134.244 64.4347 134.535 64.2723C134.827 64.1099 135.049 63.8978 135.202 63.6359C135.357 63.3708 135.435 63.0874 135.435 62.7858V61.8014C135.366 61.871 135.213 61.9323 134.978 61.9854C134.742 62.0384 134.494 62.0831 134.232 62.1196C133.97 62.156 133.758 62.1859 133.596 62.2091C133.165 62.2654 132.795 62.3798 132.487 62.5521C132.182 62.7211 132.03 63.0045 132.03 63.4023C132.03 63.7702 132.166 64.0486 132.437 64.2375C132.709 64.4231 133.055 64.5159 133.476 64.5159ZM142.224 56.6807V55.3582H150.104V56.6807H146.927V65.54H145.396V56.6807H142.224ZM151.736 68.5081C151.504 68.5081 151.3 68.4882 151.124 68.4484C150.949 68.4086 150.821 68.3705 150.741 68.3341L151.099 67.1011C151.51 67.2105 151.853 67.2188 152.129 67.126C152.407 67.0332 152.639 66.7382 152.825 66.241L153.043 65.6395L150.249 57.9037H151.84L153.774 63.8298H153.854L155.788 57.9037H157.384L154.202 66.6537C153.986 67.247 153.675 67.7043 153.267 68.0258C152.863 68.3473 152.352 68.5081 151.736 68.5081ZM158.781 68.4037V57.9037H160.232V59.1416H160.357C160.446 58.9825 160.57 58.7986 160.729 58.5898C160.892 58.3809 161.117 58.1987 161.406 58.0429C161.697 57.8838 162.078 57.8042 162.549 57.8042C163.165 57.8042 163.714 57.96 164.195 58.2716C164.679 58.5831 165.06 59.0322 165.338 59.6189C165.616 60.2055 165.756 60.9115 165.756 61.7368C165.756 62.5587 165.618 63.2664 165.343 63.8596C165.068 64.4496 164.69 64.902 164.21 65.2169C163.729 65.5318 163.18 65.6892 162.564 65.6892C162.1 65.6892 161.722 65.6113 161.43 65.4555C161.139 65.2997 160.908 65.1175 160.739 64.9086C160.574 64.6998 160.446 64.5142 160.357 64.3518H160.267V68.4037H158.781ZM160.237 61.7219C160.237 62.5239 160.41 63.1752 160.754 63.6757C161.099 64.1729 161.591 64.4214 162.231 64.4214C162.675 64.4214 163.046 64.3038 163.344 64.0684C163.646 63.8298 163.873 63.5067 164.026 63.099C164.178 62.6913 164.254 62.2323 164.254 61.7219C164.254 61.2148 164.178 60.7623 164.026 60.3646C163.876 59.9636 163.653 59.647 163.354 59.415C163.056 59.183 162.682 59.067 162.231 59.067C161.581 59.067 161.086 59.3106 160.744 59.7979C160.406 60.2818 160.237 60.9231 160.237 61.7219ZM170.712 65.6942C169.963 65.6942 169.317 65.5318 168.773 65.2069C168.23 64.8821 167.811 64.4264 167.516 63.8398C167.224 63.2498 167.078 62.5604 167.078 61.7716C167.078 60.9894 167.224 60.3 167.516 59.7034C167.811 59.1068 168.222 58.6411 168.749 58.3064C169.279 57.9716 169.899 57.8042 170.608 57.8042C171.185 57.8042 171.73 57.9335 172.244 58.192C172.761 58.4472 173.18 58.8566 173.501 59.42C173.826 59.9801 173.989 60.7209 173.989 61.6423V62.1693H168.56C168.58 62.9051 168.787 63.4719 169.181 63.8696C169.576 64.2673 170.091 64.4662 170.727 64.4662C171.152 64.4662 171.518 64.375 171.826 64.1927C172.134 64.0104 172.355 63.7387 172.487 63.3774L173.894 63.6309C173.725 64.2507 173.361 64.7496 172.8 65.1274C172.24 65.5052 171.544 65.6942 170.712 65.6942ZM168.565 61.0557H172.532C172.529 60.4723 172.353 59.9901 172.005 59.6089C171.657 59.2245 171.195 59.0322 170.618 59.0322C170.217 59.0322 169.866 59.1267 169.564 59.3156C169.266 59.5012 169.029 59.7481 168.853 60.0564C168.681 60.3613 168.585 60.6944 168.565 61.0557Z" fill="#333333"/>
<path d="M76.522 60.5498C76.522 59.9559 76.6981 59.3752 77.0281 58.8813C77.3581 58.3875 77.8271 58.0026 78.3759 57.7752C78.9247 57.5479 79.5285 57.4885 80.1111 57.6043C80.6936 57.7202 81.2287 58.0063 81.6487 58.4263C82.0687 58.8463 82.3548 59.3814 82.4706 59.9639C82.5865 60.5465 82.527 61.1503 82.2997 61.6991C82.0724 62.2479 81.6875 62.7169 81.1936 63.0469C80.6998 63.3769 80.1191 63.553 79.5252 63.553C78.7287 63.553 77.9648 63.2366 77.4016 62.6734C76.8384 62.1102 76.522 61.3463 76.522 60.5498ZM74.8983 60.5498C74.8983 61.4648 75.1696 62.3592 75.678 63.12C76.1863 63.8808 76.9088 64.4738 77.7541 64.8239C78.5994 65.1741 79.5296 65.2657 80.427 65.0873C81.3244 64.9088 82.1487 64.4683 82.7957 63.8213C83.4428 63.1744 83.8834 62.3501 84.062 61.4527C84.2406 60.5553 84.149 59.6251 83.7989 58.7798C83.4489 57.9344 82.856 57.2119 82.0953 56.7034C81.3345 56.195 80.4401 55.9236 79.5252 55.9235C78.9176 55.9235 78.316 56.0431 77.7547 56.2756C77.1934 56.5081 76.6834 56.8489 76.2538 57.2785C75.8242 57.7081 75.4835 58.2181 75.251 58.7794C75.0185 59.3407 74.8988 59.9423 74.8989 60.5498H74.8983ZM83.2526 55.7401C83.2526 55.954 83.3159 56.163 83.4347 56.3409C83.5534 56.5187 83.7222 56.6573 83.9197 56.7392C84.1173 56.8211 84.3346 56.8426 84.5444 56.8009C84.7541 56.7593 84.9468 56.6564 85.098 56.5052C85.2493 56.3541 85.3523 56.1615 85.3941 55.9518C85.4359 55.7421 85.4145 55.5247 85.3328 55.3271C85.251 55.1295 85.1125 54.9606 84.9347 54.8418C84.757 54.7229 84.548 54.6594 84.3341 54.6594C84.0475 54.6595 83.7726 54.7734 83.5699 54.976C83.3672 55.1787 83.2532 55.4535 83.253 55.7401H83.2526ZM75.886 67.8834C75.3147 67.8769 74.7487 67.7721 74.2129 67.5736C73.8216 67.4289 73.4675 67.1987 73.1766 66.8996C72.8771 66.6094 72.6468 66.2554 72.5027 65.864C72.3038 65.3283 72.1988 64.7623 72.1921 64.1909C72.1485 63.2412 72.1391 62.9559 72.1391 60.55C72.1391 58.1441 72.1485 57.8595 72.1921 56.9091C72.1993 56.3378 72.3041 55.7719 72.502 55.236C72.6466 54.8446 72.8769 54.4906 73.1759 54.1997C73.4663 53.9 73.8205 53.6697 74.2122 53.5257C74.7482 53.327 75.3144 53.2221 75.886 53.2157C76.8357 53.1721 77.121 53.1627 79.5252 53.1627C81.9293 53.1627 82.2157 53.1721 83.1661 53.2157C83.7374 53.2229 84.3032 53.3277 84.8392 53.5256C85.2307 53.6699 85.5848 53.9002 85.8755 54.1995C86.1748 54.4902 86.4051 54.8443 86.5494 55.2358C86.748 55.7716 86.8528 56.3375 86.8593 56.9089C86.9029 57.8593 86.9123 58.1439 86.9123 60.5498C86.9123 62.9557 86.9036 63.2403 86.8593 64.1907C86.8524 64.7621 86.7476 65.328 86.5494 65.8639C86.3995 66.2524 86.1699 66.6053 85.8753 66.8997C85.5808 67.1941 85.2278 67.4236 84.8392 67.5734C84.3034 67.772 83.7374 67.8768 83.1661 67.8832C82.2164 67.9269 81.9311 67.9362 79.5252 67.9362C77.1193 67.9362 76.8347 67.9276 75.886 67.8832V67.8834ZM75.8108 51.5949C75.0634 51.6097 74.3239 51.7512 73.6239 52.0134C73.0227 52.2396 72.478 52.5942 72.0278 53.0525C71.5691 53.5022 71.2144 54.047 70.9885 54.6484C70.7264 55.3485 70.5849 56.088 70.5702 56.8354C70.5259 57.7961 70.5156 58.1031 70.5156 60.5498C70.5156 62.9965 70.5259 63.3036 70.5702 64.2642C70.585 65.0116 70.7265 65.751 70.9887 66.4511C71.2145 67.0525 71.5692 67.5973 72.0278 68.0472C72.4782 68.5052 73.0227 68.8598 73.6237 69.0865C74.3238 69.3486 75.0632 69.4901 75.8106 69.505C76.7718 69.5486 77.0783 69.5595 79.525 69.5595C81.9717 69.5595 82.2787 69.5493 83.2394 69.505C83.9868 69.4902 84.7262 69.3486 85.4262 69.0865C86.0249 68.855 86.5685 68.501 87.0224 68.0472C87.4762 67.5934 87.8302 67.0497 88.0616 66.4511C88.3242 65.7511 88.4657 65.0116 88.4801 64.2642C88.5238 63.3029 88.5331 62.9965 88.5331 60.5498C88.5331 58.1031 88.5229 57.7961 88.4801 56.8354C88.4654 56.088 88.3238 55.3486 88.0616 54.6486C87.8351 54.0475 87.4805 53.5029 87.0225 53.0525C86.5728 52.594 86.0284 52.2393 85.4273 52.0132C84.7273 51.7509 83.9877 51.6094 83.2403 51.5949C82.2798 51.5512 81.9726 51.5403 79.5252 51.5403C77.0778 51.5403 76.7711 51.5505 75.8101 51.5949" fill="url(#paint0_radial_5_441)"/>
<path d="M76.522 60.5498C76.522 59.9559 76.6981 59.3752 77.0281 58.8813C77.3581 58.3875 77.8271 58.0026 78.3759 57.7752C78.9247 57.5479 79.5285 57.4885 80.1111 57.6043C80.6936 57.7202 81.2287 58.0063 81.6487 58.4263C82.0687 58.8463 82.3548 59.3814 82.4706 59.9639C82.5865 60.5465 82.527 61.1503 82.2997 61.6991C82.0724 62.2479 81.6875 62.7169 81.1936 63.0469C80.6998 63.3769 80.1191 63.553 79.5252 63.553C78.7287 63.553 77.9648 63.2366 77.4016 62.6734C76.8384 62.1102 76.522 61.3463 76.522 60.5498ZM74.8983 60.5498C74.8983 61.4648 75.1696 62.3592 75.678 63.12C76.1863 63.8808 76.9088 64.4738 77.7541 64.8239C78.5994 65.1741 79.5296 65.2657 80.427 65.0873C81.3244 64.9088 82.1487 64.4683 82.7957 63.8213C83.4428 63.1744 83.8834 62.3501 84.062 61.4527C84.2406 60.5553 84.149 59.6251 83.7989 58.7798C83.4489 57.9344 82.856 57.2119 82.0953 56.7034C81.3345 56.195 80.4401 55.9236 79.5252 55.9235C78.9176 55.9235 78.316 56.0431 77.7547 56.2756C77.1934 56.5081 76.6834 56.8489 76.2538 57.2785C75.8242 57.7081 75.4835 58.2181 75.251 58.7794C75.0185 59.3407 74.8988 59.9423 74.8989 60.5498H74.8983ZM83.2526 55.7401C83.2526 55.954 83.3159 56.163 83.4347 56.3409C83.5534 56.5187 83.7222 56.6573 83.9197 56.7392C84.1173 56.8211 84.3346 56.8426 84.5444 56.8009C84.7541 56.7593 84.9468 56.6564 85.098 56.5052C85.2493 56.3541 85.3523 56.1615 85.3941 55.9518C85.4359 55.7421 85.4145 55.5247 85.3328 55.3271C85.251 55.1295 85.1125 54.9606 84.9347 54.8418C84.757 54.7229 84.548 54.6594 84.3341 54.6594C84.0475 54.6595 83.7726 54.7734 83.5699 54.976C83.3672 55.1787 83.2532 55.4535 83.253 55.7401H83.2526ZM75.886 67.8834C75.3147 67.8769 74.7487 67.7721 74.2129 67.5736C73.8216 67.4289 73.4675 67.1987 73.1766 66.8996C72.8771 66.6094 72.6468 66.2554 72.5027 65.864C72.3038 65.3283 72.1988 64.7623 72.1921 64.1909C72.1485 63.2412 72.1391 62.9559 72.1391 60.55C72.1391 58.1441 72.1485 57.8595 72.1921 56.9091C72.1993 56.3378 72.3041 55.7719 72.502 55.236C72.6466 54.8446 72.8769 54.4906 73.1759 54.1997C73.4663 53.9 73.8205 53.6697 74.2122 53.5257C74.7482 53.327 75.3144 53.2221 75.886 53.2157C76.8357 53.1721 77.121 53.1627 79.5252 53.1627C81.9293 53.1627 82.2157 53.1721 83.1661 53.2157C83.7374 53.2229 84.3032 53.3277 84.8392 53.5256C85.2307 53.6699 85.5848 53.9002 85.8755 54.1995C86.1748 54.4902 86.4051 54.8443 86.5494 55.2358C86.748 55.7716 86.8528 56.3375 86.8593 56.9089C86.9029 57.8593 86.9123 58.1439 86.9123 60.5498C86.9123 62.9557 86.9036 63.2403 86.8593 64.1907C86.8524 64.7621 86.7476 65.328 86.5494 65.8639C86.3995 66.2524 86.1699 66.6053 85.8753 66.8997C85.5808 67.1941 85.2278 67.4236 84.8392 67.5734C84.3034 67.772 83.7374 67.8768 83.1661 67.8832C82.2164 67.9269 81.9311 67.9362 79.5252 67.9362C77.1193 67.9362 76.8347 67.9278 75.886 67.8834ZM75.8108 51.5949C75.0634 51.6097 74.3239 51.7512 73.6239 52.0134C73.0227 52.2396 72.478 52.5942 72.0278 53.0525C71.5691 53.5022 71.2144 54.047 70.9885 54.6484C70.7264 55.3485 70.5849 56.088 70.5702 56.8354C70.5259 57.7961 70.5156 58.1031 70.5156 60.5498C70.5156 62.9965 70.5259 63.3036 70.5702 64.2642C70.585 65.0116 70.7265 65.751 70.9887 66.4511C71.2145 67.0525 71.5692 67.5973 72.0278 68.0472C72.4782 68.5052 73.0227 68.8598 73.6237 69.0865C74.3238 69.3486 75.0632 69.4901 75.8106 69.505C76.7718 69.5486 77.0783 69.5595 79.525 69.5595C81.9717 69.5595 82.2787 69.5493 83.2394 69.505C83.9868 69.4902 84.7262 69.3486 85.4262 69.0865C86.0249 68.855 86.5685 68.501 87.0224 68.0472C87.4762 67.5934 87.8302 67.0497 88.0616 66.4511C88.3242 65.7511 88.4657 65.0116 88.4801 64.2642C88.5238 63.3029 88.5331 62.9965 88.5331 60.5498C88.5331 58.1031 88.5229 57.7961 88.4801 56.8354C88.4654 56.088 88.3238 55.3486 88.0616 54.6486C87.8351 54.0475 87.4805 53.5029 87.0225 53.0525C86.5728 52.594 86.0284 52.2393 85.4273 52.0132C84.7273 51.7509 83.9877 51.6094 83.2403 51.5949C82.2798 51.5512 81.9726 51.5403 79.5252 51.5403C77.0778 51.5403 76.7711 51.5505 75.8101 51.5949" fill="url(#paint1_radial_5_441)"/>
<path d="M280.064 53.3413H269.974C269.401 53.3413 268.851 53.5691 268.445 53.9746C268.04 54.38 267.812 54.93 267.812 55.5034V65.5932C267.812 66.1666 268.04 66.7166 268.445 67.122C268.851 67.5275 269.401 67.7553 269.974 67.7553H280.064C280.637 67.7553 281.187 67.5275 281.593 67.122C281.998 66.7166 282.226 66.1666 282.226 65.5932V55.5034C282.226 54.93 281.998 54.38 281.593 53.9746C281.187 53.5691 280.637 53.3413 280.064 53.3413ZM280.064 54.7827C280.255 54.7827 280.438 54.8586 280.573 54.9938C280.709 55.129 280.785 55.3123 280.785 55.5034V59.8276H275.74V54.7827H280.064ZM269.253 55.5034C269.253 55.3123 269.329 55.129 269.464 54.9938C269.6 54.8586 269.783 54.7827 269.974 54.7827H274.298V59.8276H269.253V55.5034ZM269.974 66.3139C269.783 66.3139 269.6 66.238 269.464 66.1028C269.329 65.9677 269.253 65.7843 269.253 65.5932V61.269H274.298V66.3139H269.974ZM280.785 65.5932C280.785 65.7843 280.709 65.9677 280.573 66.1028C280.438 66.238 280.255 66.3139 280.064 66.3139H275.74V61.269H280.785V65.5932Z" fill="#666666"/>
<circle cx="275.019" cy="60.5483" r="16.6662" stroke="#EEF0F2" stroke-width="0.900875"/>
<circle cx="314.656" cy="60.5485" r="16.6662" stroke="#EEF0F2" stroke-width="0.900875"/>
<circle cx="205.653" cy="181.265" r="73.8717" stroke="#F5F5F5" stroke-width="15.3149"/>
<g filter="url(#filter1_d_5_441)">
<path d="M205.653 107.394C164.855 107.394 131.781 140.467 131.781 181.265C131.781 222.063 164.855 255.137 205.653 255.137C221.602 255.137 236.371 250.083 248.444 241.488" stroke="#DE2879" stroke-width="27.0262"/>
</g>
<path d="M218.265 151.536H74.1252C71.6375 151.536 69.6208 153.553 69.6208 156.041V202.886C69.6208 205.374 71.6375 207.391 74.1252 207.391H135.835L141.691 213.246L147.546 207.391H218.265C220.753 207.391 222.769 205.374 222.769 202.886V156.041C222.769 153.553 220.753 151.536 218.265 151.536Z" fill="#293134"/>
<path d="M82.1332 173.999L85.9429 166.465V166.401H81.5366V165.272H87.3065V166.44L83.5096 173.999H82.1332ZM88.6684 173.999V173.045L91.6215 169.985C91.934 169.653 92.194 169.361 92.4014 169.111C92.6087 168.859 92.7636 168.619 92.8658 168.391C92.9681 168.164 93.0193 167.923 93.0193 167.667C93.0193 167.232 92.8701 166.888 92.5718 166.636C92.2735 166.38 91.9028 166.252 91.4596 166.252C90.988 166.252 90.6116 166.394 90.3303 166.678C90.0519 166.959 89.9141 167.334 89.917 167.803H88.6599C88.6599 167.272 88.782 166.808 89.0264 166.41C89.2707 166.012 89.6059 165.704 90.032 165.485C90.4582 165.263 90.9426 165.153 91.4852 165.153C92.0335 165.153 92.5164 165.262 92.934 165.481C93.3545 165.697 93.6826 165.992 93.9184 166.367C94.1542 166.739 94.2721 167.16 94.2721 167.629C94.2721 167.952 94.211 168.269 94.0889 168.579C93.9695 168.888 93.7607 169.234 93.4624 169.614C93.167 169.992 92.7522 170.451 92.2181 170.991L90.4837 172.806V172.87H94.4127V173.999H88.6684ZM96.7643 174.08C96.5314 174.08 96.3311 173.998 96.1635 173.833C95.9958 173.665 95.912 173.464 95.912 173.228C95.912 172.995 95.9958 172.796 96.1635 172.631C96.3311 172.464 96.5314 172.38 96.7643 172.38C96.9973 172.38 97.1976 172.464 97.3652 172.631C97.5328 172.796 97.6166 172.995 97.6166 173.228C97.6166 173.464 97.5328 173.665 97.3652 173.833C97.1976 173.998 96.9973 174.08 96.7643 174.08ZM101.814 174.119C101.226 174.119 100.704 174.018 100.246 173.816C99.7888 173.614 99.4266 173.334 99.1596 172.977C98.8954 172.616 98.7533 172.198 98.7334 171.724H100.072C100.097 172.11 100.275 172.417 100.604 172.644C100.934 172.871 101.334 172.985 101.806 172.985C102.32 172.985 102.742 172.854 103.072 172.593C103.404 172.329 103.57 171.985 103.57 171.562C103.57 171.121 103.402 170.763 103.067 170.488C102.735 170.209 102.266 170.07 101.661 170.07H100.924V168.996H101.661C102.144 168.996 102.539 168.869 102.846 168.613C103.152 168.357 103.304 168.019 103.302 167.599C103.304 167.195 103.171 166.87 102.901 166.623C102.634 166.376 102.277 166.252 101.831 166.252C101.402 166.252 101.025 166.367 100.698 166.597C100.374 166.825 100.205 167.138 100.191 167.539H98.9167C98.9309 167.065 99.0701 166.648 99.3343 166.29C99.6013 165.933 99.9536 165.654 100.391 165.455C100.829 165.254 101.314 165.153 101.849 165.153C102.408 165.153 102.893 165.262 103.302 165.481C103.711 165.7 104.026 165.989 104.248 166.35C104.469 166.708 104.579 167.102 104.576 167.531C104.579 168.019 104.444 168.434 104.171 168.775C103.898 169.116 103.533 169.344 103.076 169.461V169.529C103.655 169.617 104.104 169.847 104.422 170.219C104.743 170.592 104.902 171.053 104.9 171.604C104.902 172.087 104.77 172.519 104.503 172.9C104.236 173.278 103.87 173.576 103.404 173.795C102.938 174.011 102.408 174.119 101.814 174.119ZM110.946 172.363V171.903C110.949 171.573 111.018 171.272 111.155 170.999C111.294 170.724 111.496 170.504 111.76 170.339C112.024 170.171 112.345 170.087 112.723 170.087C113.109 170.087 113.433 170.17 113.694 170.334C113.959 170.499 114.157 170.719 114.291 170.995C114.425 171.271 114.491 171.573 114.491 171.903V172.363C114.491 172.69 114.423 172.991 114.287 173.266C114.15 173.542 113.95 173.763 113.686 173.931C113.425 174.096 113.104 174.178 112.723 174.178C112.339 174.178 112.015 174.096 111.751 173.931C111.487 173.763 111.287 173.542 111.15 173.266C111.017 172.991 110.949 172.69 110.946 172.363ZM106.557 167.369V166.908C106.557 166.579 106.626 166.276 106.765 166.001C106.905 165.725 107.106 165.505 107.371 165.34C107.635 165.175 107.956 165.093 108.334 165.093C108.72 165.093 109.044 165.175 109.305 165.34C109.567 165.505 109.764 165.725 109.898 166.001C110.034 166.276 110.101 166.579 110.098 166.908V167.369C110.101 167.698 110.034 168.001 109.898 168.276C109.761 168.552 109.561 168.772 109.297 168.937C109.035 169.102 108.714 169.184 108.334 169.184C107.95 169.184 107.626 169.102 107.362 168.937C107.098 168.769 106.898 168.548 106.761 168.272C106.625 167.996 106.557 167.695 106.557 167.369ZM106.915 173.999L112.915 165.272H113.933L107.933 173.999H106.915ZM111.939 171.903V172.363C111.942 172.604 112 172.826 112.113 173.028C112.23 173.227 112.433 173.326 112.723 173.326C113.01 173.326 113.21 173.227 113.324 173.028C113.437 172.829 113.494 172.607 113.494 172.363V171.903C113.494 171.658 113.439 171.437 113.328 171.238C113.22 171.039 113.018 170.94 112.723 170.94C112.439 170.94 112.237 171.039 112.118 171.238C112.001 171.437 111.942 171.658 111.939 171.903ZM107.554 166.908V167.369C107.554 167.613 107.611 167.834 107.724 168.033C107.841 168.232 108.044 168.332 108.334 168.332C108.621 168.332 108.821 168.232 108.934 168.033C109.048 167.834 109.105 167.613 109.105 167.369V166.908C109.105 166.664 109.05 166.442 108.939 166.244C108.831 166.045 108.629 165.945 108.334 165.945C108.05 165.945 107.848 166.045 107.729 166.244C107.612 166.442 107.554 166.664 107.554 166.908ZM122.038 174.131C121.424 174.131 120.889 173.991 120.431 173.709C119.974 173.428 119.619 173.035 119.366 172.529C119.113 172.021 118.987 171.43 118.987 170.756C118.987 170.077 119.113 169.484 119.366 168.975C119.619 168.467 119.974 168.072 120.431 167.79C120.889 167.509 121.424 167.369 122.038 167.369C122.654 167.369 123.19 167.509 123.644 167.79C124.102 168.072 124.457 168.467 124.71 168.975C124.963 169.484 125.089 170.077 125.089 170.756C125.089 171.43 124.963 172.021 124.71 172.529C124.457 173.035 124.102 173.428 123.644 173.709C123.19 173.991 122.654 174.131 122.038 174.131ZM122.042 173.062C122.443 173.062 122.772 172.957 123.031 172.746C123.292 172.536 123.485 172.256 123.61 171.907C123.738 171.555 123.802 171.17 123.802 170.752C123.802 170.334 123.738 169.95 123.61 169.597C123.485 169.245 123.292 168.964 123.031 168.754C122.772 168.54 122.443 168.434 122.042 168.434C121.642 168.434 121.311 168.54 121.049 168.754C120.788 168.964 120.593 169.245 120.465 169.597C120.338 169.95 120.274 170.334 120.274 170.752C120.274 171.17 120.338 171.555 120.465 171.907C120.593 172.256 120.788 172.536 121.049 172.746C121.311 172.957 121.642 173.062 122.042 173.062ZM129.528 167.454V168.477H128.117V173.999H126.839V168.477H125.829V167.454H126.839V166.695C126.839 166.286 126.928 165.947 127.107 165.677C127.289 165.404 127.528 165.201 127.823 165.067C128.119 164.931 128.438 164.863 128.782 164.863C129.04 164.863 129.261 164.884 129.442 164.927C129.624 164.967 129.759 165.004 129.847 165.038L129.549 166.069C129.489 166.049 129.413 166.028 129.319 166.005C129.225 165.982 129.111 165.971 128.978 165.971C128.668 165.971 128.447 166.048 128.313 166.201C128.182 166.354 128.117 166.576 128.117 166.866V167.454H129.528ZM136.836 167.454V168.477H135.493V172.077C135.493 172.447 135.571 172.685 135.728 172.793C135.887 172.898 136.07 172.951 136.277 172.951C136.38 172.951 136.469 172.944 136.546 172.93C136.622 172.915 136.682 172.904 136.725 172.896L136.955 173.948C136.881 173.977 136.774 174.005 136.635 174.033C136.499 174.065 136.33 174.082 136.128 174.084C135.793 174.09 135.479 174.031 135.186 173.906C134.897 173.781 134.662 173.587 134.483 173.326C134.307 173.065 134.219 172.736 134.219 172.342V168.477H133.26V167.454H134.219V165.886H135.493V167.454H136.836ZM139.54 170.113V173.999H138.266V165.272H139.523V168.519H139.604C139.757 168.164 139.991 167.884 140.307 167.68C140.622 167.472 141.034 167.369 141.543 167.369C142.216 167.369 142.757 167.576 143.166 167.991C143.578 168.406 143.784 169.021 143.784 169.836V173.999H142.51V169.989C142.51 169.509 142.386 169.137 142.139 168.873C141.892 168.606 141.548 168.472 141.108 168.472C140.653 168.472 140.278 168.616 139.983 168.903C139.687 169.187 139.54 169.59 139.54 170.113ZM148.185 174.131C147.543 174.131 146.989 173.992 146.523 173.714C146.058 173.435 145.698 173.045 145.445 172.542C145.195 172.036 145.07 171.445 145.07 170.769C145.07 170.099 145.195 169.508 145.445 168.996C145.698 168.485 146.05 168.086 146.502 167.799C146.957 167.512 147.488 167.369 148.096 167.369C148.59 167.369 149.058 167.479 149.498 167.701C149.941 167.92 150.3 168.271 150.576 168.754C150.854 169.234 150.994 169.869 150.994 170.658V171.11H146.34C146.357 171.741 146.535 172.227 146.873 172.567C147.211 172.908 147.653 173.079 148.198 173.079C148.562 173.079 148.876 173.001 149.14 172.844C149.404 172.688 149.593 172.455 149.707 172.146L150.913 172.363C150.768 172.894 150.455 173.322 149.975 173.646C149.495 173.969 148.898 174.131 148.185 174.131ZM146.344 170.156H149.745C149.742 169.656 149.592 169.242 149.293 168.915C148.995 168.586 148.599 168.421 148.104 168.421C147.761 168.421 147.46 168.502 147.201 168.664C146.945 168.823 146.742 169.035 146.592 169.299C146.444 169.56 146.362 169.846 146.344 170.156ZM155.343 173.999V167.454H156.566V168.519H156.647C156.783 168.158 157.006 167.877 157.316 167.675C157.626 167.471 157.997 167.369 158.428 167.369C158.866 167.369 159.232 167.471 159.528 167.675C159.826 167.88 160.046 168.161 160.188 168.519H160.256C160.416 168.17 160.664 167.891 161.002 167.684C161.343 167.474 161.749 167.369 162.221 167.369C162.815 167.369 163.299 167.556 163.674 167.931C164.052 168.303 164.241 168.863 164.241 169.61V173.999H162.967V169.729C162.967 169.286 162.846 168.965 162.604 168.766C162.366 168.567 162.077 168.468 161.739 168.468C161.325 168.468 161.002 168.596 160.772 168.852C160.542 169.107 160.427 169.433 160.427 169.827V173.999H159.157V169.648C159.157 169.293 159.046 169.008 158.825 168.792C158.603 168.576 158.315 168.468 157.96 168.468C157.599 168.468 157.285 168.607 157.018 168.886C156.751 169.164 156.617 169.523 156.617 169.964V173.999H155.343ZM168.65 174.131C168.008 174.131 167.454 173.992 166.988 173.714C166.522 173.435 166.162 173.045 165.91 172.542C165.66 172.036 165.535 171.445 165.535 170.769C165.535 170.099 165.66 169.508 165.91 168.996C166.162 168.485 166.515 168.086 166.966 167.799C167.421 167.512 167.952 167.369 168.56 167.369C169.054 167.369 169.522 167.479 169.962 167.701C170.405 167.92 170.765 168.271 171.04 168.754C171.319 169.234 171.458 169.869 171.458 170.658V171.11H166.804C166.821 171.741 166.999 172.227 167.337 172.567C167.675 172.908 168.117 173.079 168.662 173.079C169.026 173.079 169.34 173.001 169.604 172.844C169.868 172.688 170.057 172.455 170.171 172.146L171.377 172.363C171.232 172.894 170.919 173.322 170.439 173.646C169.959 173.969 169.363 174.131 168.65 174.131ZM166.809 170.156H170.209C170.206 169.656 170.056 169.242 169.758 168.915C169.459 168.586 169.063 168.421 168.569 168.421C168.225 168.421 167.924 168.502 167.665 168.664C167.41 168.823 167.206 169.035 167.056 169.299C166.908 169.56 166.826 169.846 166.809 170.156ZM175.202 174.127C174.673 174.127 174.203 173.992 173.791 173.722C173.379 173.452 173.056 173.065 172.82 172.559C172.584 172.05 172.466 171.444 172.466 170.739C172.466 170.032 172.584 169.427 172.82 168.924C173.058 168.421 173.385 168.036 173.8 167.769C174.215 167.502 174.685 167.369 175.21 167.369C175.617 167.369 175.943 167.437 176.19 167.573C176.44 167.707 176.634 167.863 176.77 168.042C176.909 168.221 177.017 168.379 177.094 168.515H177.171V165.272H178.445V173.999H177.2V172.981H177.094C177.017 173.12 176.906 173.279 176.761 173.458C176.619 173.637 176.423 173.793 176.173 173.927C175.923 174.06 175.6 174.127 175.202 174.127ZM175.483 173.04C176.034 173.04 176.456 172.827 176.749 172.401C177.044 171.972 177.192 171.414 177.192 170.727C177.192 170.042 177.046 169.492 176.753 169.077C176.463 168.66 176.04 168.451 175.483 168.451C175.1 168.451 174.78 168.55 174.524 168.749C174.269 168.948 174.075 169.219 173.945 169.563C173.817 169.904 173.753 170.292 173.753 170.727C173.753 171.164 173.818 171.558 173.949 171.907C174.08 172.256 174.273 172.533 174.529 172.738C174.787 172.94 175.105 173.04 175.483 173.04ZM180.143 173.999V167.454H181.417V173.999H180.143ZM180.787 166.444C180.565 166.444 180.375 166.37 180.216 166.222C180.059 166.072 179.981 165.893 179.981 165.685C179.981 165.475 180.059 165.296 180.216 165.148C180.375 164.998 180.565 164.923 180.787 164.923C181.005 164.923 181.194 164.998 181.353 165.148C181.513 165.296 181.592 165.475 181.592 165.685C181.592 165.893 181.513 166.072 181.353 166.222C181.194 166.37 181.005 166.444 180.787 166.444ZM184.916 174.144C184.502 174.144 184.127 174.067 183.791 173.914C183.459 173.761 183.195 173.536 182.999 173.241C182.803 172.942 182.705 172.579 182.705 172.15C182.705 171.778 182.776 171.472 182.918 171.234C183.063 170.995 183.254 170.806 183.493 170.667C183.735 170.528 184.004 170.424 184.303 170.356C184.601 170.285 184.905 170.231 185.215 170.194C185.607 170.148 185.923 170.111 186.165 170.083C186.409 170.052 186.587 170.002 186.698 169.934C186.811 169.866 186.868 169.755 186.868 169.602V169.572C186.868 169.2 186.763 168.911 186.553 168.707C186.345 168.502 186.036 168.4 185.624 168.4C185.195 168.4 184.857 168.494 184.61 168.681C184.365 168.869 184.196 169.079 184.102 169.312L182.905 169.039C183.118 168.442 183.473 168.015 183.97 167.756C184.47 167.498 185.016 167.369 185.607 167.369C185.868 167.369 186.145 167.4 186.438 167.462C186.73 167.522 187.006 167.634 187.264 167.799C187.526 167.961 187.737 168.191 187.899 168.489C188.064 168.788 188.146 169.175 188.146 169.653V173.999H186.902V173.104H186.851C186.729 173.349 186.512 173.583 186.199 173.808C185.887 174.032 185.459 174.144 184.916 174.144ZM185.193 173.121C185.548 173.121 185.851 173.052 186.101 172.913C186.351 172.773 186.541 172.592 186.672 172.367C186.806 172.14 186.872 171.897 186.872 171.638V170.795C186.813 170.854 186.682 170.907 186.48 170.952C186.279 170.998 186.066 171.036 185.841 171.067C185.617 171.099 185.435 171.124 185.296 171.144C184.926 171.192 184.61 171.29 184.345 171.438C184.084 171.583 183.953 171.826 183.953 172.167C183.953 172.482 184.07 172.721 184.303 172.883C184.536 173.042 184.833 173.121 185.193 173.121ZM195.916 167.454V168.477H194.505V173.999H193.227V168.477H192.217V167.454H193.227V166.695C193.227 166.286 193.316 165.947 193.495 165.677C193.677 165.404 193.916 165.201 194.211 165.067C194.507 164.931 194.826 164.863 195.17 164.863C195.429 164.863 195.649 164.884 195.83 164.927C196.012 164.967 196.147 165.004 196.235 165.038L195.937 166.069C195.877 166.049 195.801 166.028 195.707 166.005C195.613 165.982 195.5 165.971 195.366 165.971C195.056 165.971 194.835 166.048 194.701 166.201C194.571 166.354 194.505 166.576 194.505 166.866V167.454H195.916ZM199.612 174.131C198.998 174.131 198.463 173.991 198.005 173.709C197.548 173.428 197.193 173.035 196.94 172.529C196.687 172.021 196.561 171.43 196.561 170.756C196.561 170.077 196.687 169.484 196.94 168.975C197.193 168.467 197.548 168.072 198.005 167.79C198.463 167.509 198.998 167.369 199.612 167.369C200.228 167.369 200.764 167.509 201.218 167.79C201.676 168.072 202.031 168.467 202.284 168.975C202.536 169.484 202.663 170.077 202.663 170.756C202.663 171.43 202.536 172.021 202.284 172.529C202.031 173.035 201.676 173.428 201.218 173.709C200.764 173.991 200.228 174.131 199.612 174.131ZM199.616 173.062C200.017 173.062 200.346 172.957 200.605 172.746C200.866 172.536 201.059 172.256 201.184 171.907C201.312 171.555 201.376 171.17 201.376 170.752C201.376 170.334 201.312 169.95 201.184 169.597C201.059 169.245 200.866 168.964 200.605 168.754C200.346 168.54 200.017 168.434 199.616 168.434C199.215 168.434 198.884 168.54 198.623 168.754C198.362 168.964 198.167 169.245 198.039 169.597C197.911 169.95 197.848 170.334 197.848 170.752C197.848 171.17 197.911 171.555 198.039 171.907C198.167 172.256 198.362 172.536 198.623 172.746C198.884 172.957 199.215 173.062 199.616 173.062ZM203.965 173.999V167.454H205.197V168.494H205.265C205.384 168.141 205.594 167.864 205.896 167.663C206.197 167.458 206.54 167.356 206.927 167.356C207.106 167.356 207.266 167.377 207.408 167.42C207.55 167.462 207.675 167.521 207.783 167.594L207.374 168.66C207.298 168.62 207.211 168.589 207.114 168.566C207.018 168.543 206.907 168.532 206.782 168.532C206.342 168.532 205.974 168.671 205.678 168.95C205.386 169.225 205.239 169.576 205.239 170.002V173.999H203.965ZM85.129 189.999L85.5125 187.664H83.467L83.0835 189.999H82.0608L82.4443 187.664H81.1787L81.3449 186.641H82.6105L82.9429 184.63H81.6858L81.852 183.607H83.1091L83.4926 181.272H84.5153L84.1318 183.607H86.1773L86.5608 181.272H87.5835L87.2 183.607H88.4656L88.2994 184.63H87.0338L86.7014 186.641H87.9585L87.7923 187.664H86.5352L86.1517 189.999H85.129ZM83.6332 186.641H85.6787L86.0111 184.63H83.9656L83.6332 186.641ZM94.2817 185.052L93.1269 185.256C93.053 185.038 92.9152 184.837 92.7135 184.656C92.5146 184.471 92.2163 184.379 91.8186 184.379C91.4578 184.379 91.1553 184.459 90.9109 184.621C90.6695 184.781 90.5501 184.986 90.553 185.239C90.5501 185.461 90.6297 185.638 90.7916 185.772C90.9564 185.903 91.2192 186.011 91.58 186.096L92.6198 186.334C93.8129 186.61 94.4095 187.201 94.4095 188.107C94.4095 188.502 94.2959 188.852 94.0686 189.156C93.8442 189.459 93.5303 189.698 93.1269 189.871C92.7263 190.045 92.2618 190.131 91.7334 190.131C90.9976 190.131 90.3996 189.975 89.9394 189.663C89.4791 189.347 89.195 188.9 89.0871 188.32L90.3186 188.133C90.472 188.781 90.9408 189.104 91.7249 189.104C92.1425 189.104 92.4763 189.018 92.7263 188.844C92.9763 188.668 93.1013 188.454 93.1013 188.201C93.1013 187.783 92.793 187.506 92.1766 187.37L91.0686 187.127C90.455 186.991 90.0033 186.769 89.7135 186.462C89.4237 186.156 89.2788 185.771 89.2788 185.308C89.2788 184.921 89.3868 184.583 89.6027 184.293C89.8186 184.001 90.1169 183.773 90.4976 183.611C90.8783 183.45 91.3144 183.369 91.8058 183.369C92.5132 183.369 93.07 183.522 93.4763 183.829C93.8825 184.136 94.151 184.543 94.2817 185.052ZM99.8368 187.285V183.454H101.115V189.999H99.8623V188.866H99.7941C99.6436 189.215 99.4021 189.506 99.0697 189.739C98.7402 189.969 98.3297 190.084 97.8382 190.084C97.2103 190.084 96.6947 189.877 96.2913 189.462C95.8907 189.045 95.6904 188.43 95.6904 187.617V183.454H96.9646V187.464C96.9646 187.91 97.0882 188.265 97.3353 188.529C97.5825 188.793 97.9035 188.925 98.2984 188.925C98.537 188.925 98.7743 188.866 99.0101 188.746C99.2487 188.627 99.4461 188.447 99.6024 188.205C99.7615 187.961 99.8396 187.654 99.8368 187.285ZM103.981 186.113V189.999H102.707V183.454H103.93V184.519H104.011C104.162 184.173 104.398 183.894 104.719 183.684C105.042 183.474 105.45 183.369 105.942 183.369C106.612 183.369 107.15 183.577 107.557 183.995C107.966 184.413 108.17 185.026 108.17 185.836V189.999H106.896V185.989C106.896 185.515 106.773 185.144 106.525 184.877C106.278 184.607 105.939 184.472 105.507 184.472C105.064 184.472 104.699 184.616 104.412 184.903C104.125 185.187 103.981 185.59 103.981 186.113ZM109.759 189.999V183.454H110.991V184.494H111.059C111.178 184.141 111.388 183.864 111.689 183.663C111.993 183.458 112.337 183.356 112.721 183.356C112.803 183.356 112.898 183.359 113.006 183.364C113.114 183.37 113.199 183.377 113.262 183.386V184.604C113.211 184.59 113.12 184.575 112.989 184.558C112.861 184.538 112.731 184.528 112.597 184.528C112.145 184.528 111.772 184.667 111.476 184.945C111.181 185.221 111.033 185.573 111.033 186.002V189.999H109.759ZM114.245 189.999V183.454H115.519V189.999H114.245ZM114.888 182.444C114.666 182.444 114.476 182.37 114.317 182.222C114.161 182.072 114.083 181.893 114.083 181.685C114.083 181.475 114.161 181.296 114.317 181.148C114.476 180.998 114.666 180.923 114.888 180.923C115.107 180.923 115.296 180.998 115.455 181.148C115.614 181.296 115.693 181.475 115.693 181.685C115.693 181.893 115.614 182.072 115.455 182.222C115.296 182.37 115.107 182.444 114.888 182.444ZM122.018 185.052L120.863 185.256C120.789 185.038 120.651 184.837 120.449 184.656C120.251 184.471 119.952 184.379 119.555 184.379C119.194 184.379 118.891 184.459 118.647 184.621C118.405 184.781 118.286 184.986 118.289 185.239C118.286 185.461 118.366 185.638 118.528 185.772C118.692 185.903 118.955 186.011 119.316 186.096L120.356 186.334C121.549 186.61 122.145 187.201 122.145 188.107C122.145 188.502 122.032 188.852 121.805 189.156C121.58 189.459 121.266 189.698 120.863 189.871C120.462 190.045 119.998 190.131 119.469 190.131C118.734 190.131 118.136 189.975 117.675 189.663C117.215 189.347 116.931 188.9 116.823 188.32L118.055 188.133C118.208 188.781 118.677 189.104 119.461 189.104C119.878 189.104 120.212 189.018 120.462 188.844C120.712 188.668 120.837 188.454 120.837 188.201C120.837 187.783 120.529 187.506 119.913 187.37L118.805 187.127C118.191 186.991 117.739 186.769 117.449 186.462C117.16 186.156 117.015 185.771 117.015 185.308C117.015 184.921 117.123 184.583 117.339 184.293C117.555 184.001 117.853 183.773 118.234 183.611C118.614 183.45 119.05 183.369 119.542 183.369C120.249 183.369 120.806 183.522 121.212 183.829C121.618 184.136 121.887 184.543 122.018 185.052ZM126.247 190.131C125.605 190.131 125.051 189.992 124.585 189.714C124.12 189.435 123.76 189.045 123.507 188.542C123.257 188.036 123.132 187.445 123.132 186.769C123.132 186.099 123.257 185.508 123.507 184.996C123.76 184.485 124.112 184.086 124.564 183.799C125.019 183.512 125.55 183.369 126.158 183.369C126.652 183.369 127.12 183.479 127.56 183.701C128.003 183.92 128.362 184.271 128.638 184.754C128.916 185.234 129.056 185.869 129.056 186.658V187.11H124.402C124.419 187.741 124.597 188.227 124.935 188.567C125.273 188.908 125.715 189.079 126.26 189.079C126.624 189.079 126.938 189.001 127.202 188.844C127.466 188.688 127.655 188.455 127.769 188.146L128.975 188.363C128.83 188.894 128.517 189.322 128.037 189.646C127.557 189.969 126.96 190.131 126.247 190.131ZM124.406 186.156H127.807C127.804 185.656 127.654 185.242 127.355 184.915C127.057 184.586 126.661 184.421 126.166 184.421C125.823 184.421 125.522 184.502 125.263 184.664C125.007 184.823 124.804 185.035 124.654 185.299C124.506 185.56 124.424 185.846 124.406 186.156ZM135.31 190.144C134.895 190.144 134.52 190.067 134.185 189.914C133.853 189.761 133.588 189.536 133.392 189.241C133.196 188.942 133.098 188.579 133.098 188.15C133.098 187.778 133.169 187.472 133.311 187.234C133.456 186.995 133.648 186.806 133.887 186.667C134.128 186.528 134.398 186.424 134.696 186.356C134.995 186.285 135.299 186.231 135.608 186.194C136 186.148 136.317 186.111 136.559 186.083C136.803 186.052 136.98 186.002 137.091 185.934C137.205 185.866 137.262 185.755 137.262 185.602V185.572C137.262 185.2 137.157 184.911 136.946 184.707C136.739 184.502 136.429 184.4 136.017 184.4C135.588 184.4 135.25 184.494 135.003 184.681C134.759 184.869 134.59 185.079 134.496 185.312L133.299 185.039C133.512 184.442 133.867 184.015 134.364 183.756C134.864 183.498 135.409 183.369 136 183.369C136.262 183.369 136.539 183.4 136.831 183.462C137.124 183.522 137.399 183.634 137.658 183.799C137.919 183.961 138.131 184.191 138.293 184.489C138.458 184.788 138.54 185.175 138.54 185.653V189.999H137.296V189.104H137.245C137.122 189.349 136.905 189.583 136.593 189.808C136.28 190.032 135.853 190.144 135.31 190.144ZM135.587 189.121C135.942 189.121 136.245 189.052 136.495 188.913C136.745 188.773 136.935 188.592 137.066 188.367C137.199 188.14 137.266 187.897 137.266 187.638V186.795C137.206 186.854 137.076 186.907 136.874 186.952C136.672 186.998 136.459 187.036 136.235 187.067C136.01 187.099 135.828 187.124 135.689 187.144C135.32 187.192 135.003 187.29 134.739 187.438C134.478 187.583 134.347 187.826 134.347 188.167C134.347 188.482 134.463 188.721 134.696 188.883C134.929 189.042 135.226 189.121 135.587 189.121ZM140.117 189.999V183.454H141.349V184.494H141.417C141.536 184.141 141.746 183.864 142.048 183.663C142.349 183.458 142.692 183.356 143.079 183.356C143.258 183.356 143.418 183.377 143.56 183.42C143.702 183.462 143.827 183.521 143.935 183.594L143.526 184.66C143.45 184.62 143.363 184.589 143.266 184.566C143.17 184.543 143.059 184.532 142.934 184.532C142.494 184.532 142.126 184.671 141.83 184.95C141.538 185.225 141.391 185.576 141.391 186.002V189.999H140.117ZM147.365 190.131C146.723 190.131 146.169 189.992 145.703 189.714C145.237 189.435 144.878 189.045 144.625 188.542C144.375 188.036 144.25 187.445 144.25 186.769C144.25 186.099 144.375 185.508 144.625 184.996C144.878 184.485 145.23 184.086 145.682 183.799C146.136 183.512 146.668 183.369 147.276 183.369C147.77 183.369 148.237 183.479 148.678 183.701C149.121 183.92 149.48 184.271 149.756 184.754C150.034 185.234 150.173 185.869 150.173 186.658V187.11H145.52C145.537 187.741 145.714 188.227 146.053 188.567C146.391 188.908 146.832 189.079 147.378 189.079C147.741 189.079 148.055 189.001 148.32 188.844C148.584 188.688 148.773 188.455 148.886 188.146L150.092 188.363C149.947 188.894 149.635 189.322 149.155 189.646C148.675 189.969 148.078 190.131 147.365 190.131ZM145.524 186.156H148.925C148.922 185.656 148.771 185.242 148.473 184.915C148.175 184.586 147.778 184.421 147.284 184.421C146.94 184.421 146.639 184.502 146.381 184.664C146.125 184.823 145.922 185.035 145.771 185.299C145.624 185.56 145.541 185.846 145.524 186.156ZM154.523 192.454V183.454H155.767V184.515H155.874C155.95 184.379 156.057 184.221 156.193 184.042C156.332 183.863 156.526 183.707 156.773 183.573C157.023 183.437 157.349 183.369 157.753 183.369C158.281 183.369 158.751 183.502 159.163 183.769C159.578 184.036 159.905 184.421 160.144 184.924C160.382 185.427 160.501 186.032 160.501 186.739C160.501 187.444 160.384 188.05 160.148 188.559C159.912 189.065 159.588 189.452 159.176 189.722C158.764 189.992 158.294 190.127 157.766 190.127C157.368 190.127 157.044 190.06 156.794 189.927C156.544 189.793 156.347 189.637 156.202 189.458C156.06 189.279 155.95 189.12 155.874 188.981H155.797V192.454H154.523ZM155.771 186.727C155.771 187.414 155.919 187.972 156.215 188.401C156.51 188.827 156.932 189.04 157.48 189.04C157.861 189.04 158.179 188.94 158.435 188.738C158.693 188.533 158.888 188.256 159.019 187.907C159.149 187.558 159.215 187.164 159.215 186.727C159.215 186.292 159.149 185.904 159.019 185.563C158.891 185.219 158.699 184.948 158.443 184.749C158.188 184.55 157.867 184.451 157.48 184.451C156.923 184.451 156.499 184.66 156.206 185.077C155.916 185.492 155.771 186.042 155.771 186.727ZM163.083 186.113V189.999H161.809V181.272H163.066V184.519H163.147C163.301 184.164 163.535 183.884 163.85 183.68C164.166 183.472 164.578 183.369 165.086 183.369C165.759 183.369 166.301 183.576 166.71 183.991C167.122 184.406 167.328 185.021 167.328 185.836V189.999H166.053V185.989C166.053 185.509 165.93 185.137 165.683 184.873C165.435 184.606 165.092 184.472 164.651 184.472C164.197 184.472 163.822 184.616 163.526 184.903C163.231 185.187 163.083 185.59 163.083 186.113ZM171.665 190.131C171.051 190.131 170.516 189.991 170.058 189.709C169.601 189.428 169.246 189.035 168.993 188.529C168.74 188.021 168.614 187.43 168.614 186.756C168.614 186.077 168.74 185.484 168.993 184.975C169.246 184.467 169.601 184.072 170.058 183.79C170.516 183.509 171.051 183.369 171.665 183.369C172.281 183.369 172.817 183.509 173.271 183.79C173.729 184.072 174.084 184.467 174.337 184.975C174.59 185.484 174.716 186.077 174.716 186.756C174.716 187.43 174.59 188.021 174.337 188.529C174.084 189.035 173.729 189.428 173.271 189.709C172.817 189.991 172.281 190.131 171.665 190.131ZM171.669 189.062C172.07 189.062 172.399 188.957 172.658 188.746C172.919 188.536 173.112 188.256 173.237 187.907C173.365 187.555 173.429 187.17 173.429 186.752C173.429 186.334 173.365 185.95 173.237 185.597C173.112 185.245 172.919 184.964 172.658 184.754C172.399 184.54 172.07 184.434 171.669 184.434C171.269 184.434 170.938 184.54 170.676 184.754C170.415 184.964 170.22 185.245 170.092 185.597C169.965 185.95 169.901 186.334 169.901 186.752C169.901 187.17 169.965 187.555 170.092 187.907C170.22 188.256 170.415 188.536 170.676 188.746C170.938 188.957 171.269 189.062 171.669 189.062ZM179.074 183.454V184.477H177.731V188.077C177.731 188.447 177.809 188.685 177.966 188.793C178.125 188.898 178.308 188.951 178.515 188.951C178.618 188.951 178.707 188.944 178.784 188.93C178.861 188.915 178.92 188.904 178.963 188.896L179.193 189.948C179.119 189.977 179.013 190.005 178.873 190.033C178.737 190.065 178.568 190.082 178.366 190.084C178.031 190.09 177.717 190.031 177.425 189.906C177.135 189.781 176.9 189.587 176.721 189.326C176.545 189.065 176.457 188.736 176.457 188.342V184.477H175.498V183.454H176.457V181.886H177.731V183.454H179.074ZM183.05 190.131C182.436 190.131 181.901 189.991 181.443 189.709C180.986 189.428 180.631 189.035 180.378 188.529C180.125 188.021 179.999 187.43 179.999 186.756C179.999 186.077 180.125 185.484 180.378 184.975C180.631 184.467 180.986 184.072 181.443 183.79C181.901 183.509 182.436 183.369 183.05 183.369C183.666 183.369 184.202 183.509 184.656 183.79C185.114 184.072 185.469 184.467 185.722 184.975C185.975 185.484 186.101 186.077 186.101 186.756C186.101 187.43 185.975 188.021 185.722 188.529C185.469 189.035 185.114 189.428 184.656 189.709C184.202 189.991 183.666 190.131 183.05 190.131ZM183.054 189.062C183.455 189.062 183.784 188.957 184.043 188.746C184.304 188.536 184.497 188.256 184.622 187.907C184.75 187.555 184.814 187.17 184.814 186.752C184.814 186.334 184.75 185.95 184.622 185.597C184.497 185.245 184.304 184.964 184.043 184.754C183.784 184.54 183.455 184.434 183.054 184.434C182.654 184.434 182.323 184.54 182.061 184.754C181.8 184.964 181.605 185.245 181.477 185.597C181.35 185.95 181.286 186.334 181.286 186.752C181.286 187.17 181.35 187.555 181.477 187.907C181.605 188.256 181.8 188.536 182.061 188.746C182.323 188.957 182.654 189.062 183.054 189.062ZM192.308 185.052L191.153 185.256C191.079 185.038 190.942 184.837 190.74 184.656C190.541 184.471 190.243 184.379 189.845 184.379C189.484 184.379 189.182 184.459 188.937 184.621C188.696 184.781 188.577 184.986 188.579 185.239C188.577 185.461 188.656 185.638 188.818 185.772C188.983 185.903 189.246 186.011 189.606 186.096L190.646 186.334C191.839 186.61 192.436 187.201 192.436 188.107C192.436 188.502 192.322 188.852 192.095 189.156C191.871 189.459 191.557 189.698 191.153 189.871C190.753 190.045 190.288 190.131 189.76 190.131C189.024 190.131 188.426 189.975 187.966 189.663C187.506 189.347 187.221 188.9 187.113 188.32L188.345 188.133C188.498 188.781 188.967 189.104 189.751 189.104C190.169 189.104 190.503 189.018 190.753 188.844C191.003 188.668 191.128 188.454 191.128 188.201C191.128 187.783 190.819 187.506 190.203 187.37L189.095 187.127C188.481 186.991 188.03 186.769 187.74 186.462C187.45 186.156 187.305 185.771 187.305 185.308C187.305 184.921 187.413 184.583 187.629 184.293C187.845 184.001 188.143 183.773 188.524 183.611C188.905 183.45 189.341 183.369 189.832 183.369C190.54 183.369 191.096 183.522 191.503 183.829C191.909 184.136 192.177 184.543 192.308 185.052ZM194.556 190.08C194.323 190.08 194.123 189.998 193.955 189.833C193.788 189.665 193.704 189.464 193.704 189.228C193.704 188.995 193.788 188.796 193.955 188.631C194.123 188.464 194.323 188.38 194.556 188.38C194.789 188.38 194.99 188.464 195.157 188.631C195.325 188.796 195.409 188.995 195.409 189.228C195.409 189.464 195.325 189.665 195.157 189.833C194.99 189.998 194.789 190.08 194.556 190.08Z" fill="white"/>
<defs>
<filter id="filter0_d_5_441" x="0" y="0.0078125" width="405" height="386.982" filterUnits="userSpaceOnUse" color-interpolation-filters="sRGB">
<feFlood flood-opacity="0" result="BackgroundImageFix"/>
<feColorMatrix in="SourceAlpha" type="matrix" values="0 0 0 0 0 0 0 0 0 0 0 0 0 0 0 0 0 0 127 0" result="hardAlpha"/>
<feMorphology radius="12" operator="erode" in="SourceAlpha" result="effect1_dropShadow_5_441"/>
<feOffset dy="28"/>
<feGaussianBlur stdDeviation="30"/>
<feColorMatrix type="matrix" values="0 0 0 0 0 0 0 0 0 0 0 0 0 0 0 0 0 0 0.05 0"/>
<feBlend mode="normal" in2="BackgroundImageFix" result="effect1_dropShadow_5_441"/>
<feBlend mode="normal" in="SourceGraphic" in2="effect1_dropShadow_5_441" result="shape"/>
</filter>
<filter id="filter1_d_5_441" x="78.268" y="75.5014" width="218.013" height="254.77" filterUnits="userSpaceOnUse" color-interpolation-filters="sRGB">
<feFlood flood-opacity="0" result="BackgroundImageFix"/>
<feColorMatrix in="SourceAlpha" type="matrix" values="0 0 0 0 0 0 0 0 0 0 0 0 0 0 0 0 0 0 127 0" result="hardAlpha"/>
<feOffset dy="21.621"/>
<feGaussianBlur stdDeviation="20"/>
<feColorMatrix type="matrix" values="0 0 0 0 0 0 0 0 0 0 0 0 0 0 0 0 0 0 0.1 0"/>
<feBlend mode="normal" in2="BackgroundImageFix" result="effect1_dropShadow_5_441"/>
<feBlend mode="normal" in="SourceGraphic" in2="effect1_dropShadow_5_441" result="shape"/>
</filter>
<radialGradient id="paint0_radial_5_441" cx="0" cy="0" r="1" gradientUnits="userSpaceOnUse" gradientTransform="translate(72.9095 69.6445) scale(23.5214)">
<stop offset="0.09" stop-color="#FA8F21"/>
<stop offset="0.78" stop-color="#D82D7E"/>
</radialGradient>
<radialGradient id="paint1_radial_5_441" cx="0" cy="0" r="1" gradientUnits="userSpaceOnUse" gradientTransform="translate(81.4435 70.4517) scale(18.5381)">
<stop offset="0.64" stop-color="#8C3AAA" stop-opacity="0"/>
<stop offset="1" stop-color="#8C3AAA"/>
</radialGradient>
</defs>
</svg>
